<?xml version="1.0" standalone="no"?><!DOCTYPE svg PUBLIC "-//W3C//DTD SVG 1.1//EN" "http://www.w3.org/Graphics/SVG/1.1/DTD/svg11.dtd"><svg t="1757078245419" class="icon" viewBox="0 0 1024 1024" version="1.1" xmlns="http://www.w3.org/2000/svg" p-id="4572" xmlns:xlink="http://www.w3.org/1999/xlink" width="200" height="200"><path d="M452.992 489.5l199.936 157.668-132.352-326.912zM512 0C229.152 0 0 229.152 0 512s229.152 512 512 512 512-229.152 512-512S794.848 0 512 0z m247.328 738.336a36.335 36.335 0 0 1-37.344 35.424c-10.08 0-17.76-3.84-28.32-12.512L429.568 547.9l-88.7 221.984h-76.7l223.864-537.82a33.676 33.676 0 0 1 32.608-21.6 32.214 32.214 0 0 1 31.648 21.6l203.68 490.4c1.92 4.736 3.424 9.984 3.424 14.848a8.15 8.15 0 0 0-0.032 0.992z" fill="#EE0000" p-id="4573"></path></svg>