<?xml version="1.0" standalone="no"?><!DOCTYPE svg PUBLIC "-//W3C//DTD SVG 1.1//EN" "http://www.w3.org/Graphics/SVG/1.1/DTD/svg11.dtd"><svg t="1757760004367" class="icon" viewBox="0 0 1024 1024" version="1.1" xmlns="http://www.w3.org/2000/svg" p-id="11602" xmlns:xlink="http://www.w3.org/1999/xlink" width="200" height="200"><path d="M268.8 349.184a243.2 242.517333 0 1 0 486.4 0 243.2 242.517333 0 1 0-486.4 0Z" fill="#4B95F9" p-id="11603"></path><path d="M106.666667 632.149333a243.2 242.517333 0 1 0 486.4 0 243.2 242.517333 0 1 0-486.4 0Z" fill="#4B95F9" p-id="11604"></path><path d="M430.933333 632.149333a243.2 242.517333 0 1 0 486.4 0 243.2 242.517333 0 1 0-486.4 0Z" fill="#4B95F9" p-id="11605"></path><path d="M674.133333 389.632c26.325333 0 51.626667 4.138667 75.392 11.861333A243.114667 243.114667 0 0 1 512 591.701333a243.626667 243.626667 0 0 1-75.392-11.861333A243.114667 243.114667 0 0 1 674.133333 389.632z" fill="#496AAC" p-id="11606"></path><path d="M349.866667 389.632a243.157333 243.157333 0 0 1 237.525333 190.122667c-23.722667 7.808-49.066667 11.946667-75.392 11.946666a243.157333 243.157333 0 0 1-237.525333-190.122666 241.621333 241.621333 0 0 1 75.392-11.946667z" fill="#496AAC" p-id="11607"></path><path d="M512.042667 451.413333a241.621333 241.621333 0 0 1 81.024 180.736 241.621333 241.621333 0 0 1-81.024 180.736A241.365333 241.365333 0 0 1 430.933333 632.149333c0-71.68 31.146667-136.021333 80.682667-180.437333z" fill="#496AAC" p-id="11608"></path><path d="M459.946667 517.205333l1.877333-3.413333 3.114667-5.418667-3.114667 5.418667c1.706667-2.986667 3.413333-5.973333 5.205333-8.874667l-2.090666 3.456c1.792-2.986667 3.626667-5.973333 5.546666-8.874666l-3.413333 5.418666c1.877333-3.072 3.84-6.144 5.930667-9.130666l-2.517334 3.712c1.706667-2.645333 3.498667-5.205333 5.333334-7.765334l-2.816 4.053334c2.218667-3.242667 4.522667-6.442667 6.912-9.6l-4.096 5.546666c2.048-2.901333 4.181333-5.76 6.4-8.533333l-2.304 2.986667a246.144 246.144 0 0 1 22.997333-26.24 250.453333 250.453333 0 0 1 9.045333-8.533334 244.096 244.096 0 0 1 30.549334 32.682667l-0.682667-0.896c2.133333 2.730667 4.224 5.546667 6.272 8.362667l-5.546667-7.466667c2.645333 3.498667 5.248 7.04 7.765334 10.666667l-2.218667-3.2c1.962667 2.816 3.882667 5.632 5.76 8.490666l-3.541333-5.290666c2.176 3.157333 4.266667 6.4 6.314666 9.642666l-2.773333-4.352c2.133333 3.285333 4.266667 6.656 6.229333 10.069334l-3.413333-5.717334 4.565333 7.722667-1.152-2.005333c1.834667 3.157333 3.626667 6.357333 5.333334 9.6l-4.181334-7.594667c1.792 3.114667 3.498667 6.272 5.162667 9.472l-0.981333-1.877333c1.578667 2.986667 3.114667 6.058667 4.565333 9.173333l-3.584-7.253333a240.469333 240.469333 0 0 1 17.706667 45.141333l-1.536-5.290667c1.066667 3.456 2.048 6.954667 2.986666 10.496l-1.450666-5.248c0.938667 3.328 1.834667 6.698667 2.602666 10.112l0.682667 2.901334-0.341333 0.213333-10.666667 3.157333a241.621333 241.621333 0 0 1-28.032 5.888l3.029333-0.426666a243.626667 243.626667 0 0 1-10.666666 1.450666l7.68-1.024c-4.309333 0.64-8.661333 1.194667-13.013334 1.578667l5.376-0.554667c-4.266667 0.512-8.533333 0.853333-12.8 1.152l7.424-0.597333a244.906667 244.906667 0 0 1-11.306666 0.853333l-12.074667 0.256-12.074667-0.256a245.802667 245.802667 0 0 1-11.306666-0.853333l7.424 0.597333a245.12 245.12 0 0 1-12.8-1.152l5.376 0.597334a244.138667 244.138667 0 0 1-12.885334-1.578667l7.466667 0.981333a242.261333 242.261333 0 0 1-37.674667-7.509333l4.48 1.28a241.792 241.792 0 0 1-11.690666-3.413333l-1.706667-0.64c1.28-5.802667 2.773333-11.52 4.48-17.152l-0.682667 2.304c0.981333-3.413333 2.048-6.826667 3.2-10.154667l-2.56 7.850667c1.109333-3.584 2.261333-7.168 3.498667-10.666667l3.712-9.898667 4.138667-9.6c2.346667-5.162667 4.864-10.24 7.552-15.232z" fill="#C2DBFC" p-id="11609"></path></svg>