<?xml version="1.0" standalone="no"?><!DOCTYPE svg PUBLIC "-//W3C//DTD SVG 1.1//EN" "http://www.w3.org/Graphics/SVG/1.1/DTD/svg11.dtd"><svg t="1757147789033" class="icon" viewBox="0 0 1024 1024" version="1.1" xmlns="http://www.w3.org/2000/svg" p-id="23531" xmlns:xlink="http://www.w3.org/1999/xlink" width="200" height="200"><path d="M512 1024C229.2224 1024 0 794.7776 0 511.97952 0 229.2224 229.2224 0 512 0s512 229.23264 512 511.97952c0 89.45664-23.0656 173.54752-63.41632 246.69696l-0.24064-0.21504c-5.86752 18.944-22.87616 33.0496-43.80672 33.0496-25.68704 0-46.5408-20.8384-46.5408-46.5664l0.43008-4.32128c10.3936-29.73184 21.4784-50.56512 21.4784-50.56512 25.63584-54.31808 40.3968-114.71872 40.3968-178.71872 0-231.75168-187.88352-419.61984-419.62496-419.61984-231.71072 0-419.60448 187.86816-419.60448 419.61984 0 231.7056 187.89376 419.51232 419.59936 419.51232 92.54912 0 177.72032-30.30016 247.08608-81.03424 8.45824-8.94976 20.2752-14.63296 33.57696-14.63296a46.4896 46.4896 0 0 1 46.5408 46.52032l-0.4096 4.32128c0 21.78048-13.59872 24.09472-35.6096 44.30848C720.896 988.42624 620.9792 1024 512 1024z" fill="#F4A627" p-id="23532"></path><path d="M519.68 179.2c-21.1968 0-38.4 17.2032-38.4 38.4V486.4H314.88c-21.1968 0-38.4 17.2032-38.4 38.4 0 21.1968 17.2032 38.4 38.4 38.4H558.08V217.6c0-21.1968-17.2032-38.4-38.4-38.4z" fill="#F4A627" p-id="23533"></path></svg>