<?xml version="1.0" standalone="no"?><!DOCTYPE svg PUBLIC "-//W3C//DTD SVG 1.1//EN" "http://www.w3.org/Graphics/SVG/1.1/DTD/svg11.dtd"><svg t="1761724927896" class="icon" viewBox="0 0 1034 1024" version="1.1" xmlns="http://www.w3.org/2000/svg" p-id="8302" xmlns:xlink="http://www.w3.org/1999/xlink" width="201.953125" height="200"><path d="M1002.635334 544.708311c0-87.03728-58.739498-159.867004-137.809026-179.83438 6.229139-22.633959 9.813027-46.387884 9.813026-71.069779C874.639334 149.222003 760.018916 31.999 618.647334 31.999 516.05854 31.999 427.82663 93.842401 386.995906 182.927617 364.617939 144.827474 323.936544 119.249607 277.324667 119.249607c-70.696457 0-127.996 58.611502-127.996 130.907909 0 26.35651 7.67976 50.803746 20.767351 71.35777C96.807641 341.088008 42.665333 409.085883 42.665333 490.150016 42.665333 574.851369 101.650157 645.419831 179.898378 661.312667A267.052988 267.052988 0 0 0 170.661333 730.163849C170.661333 874.745998 285.260419 991.969001 426.653334 991.969001c95.613012 0 178.831745-53.694322 222.766372-133.137173 23.497932 28.052457 58.280845 45.865233 97.223628 45.865234 70.675125 0 127.996-58.600835 127.996-130.90791 0-16.906138-3.221233-33.652282-9.471704-49.331791C944.077164 704.404654 1002.635334 631.628262 1002.635334 544.708311" fill="#FFFFFF" p-id="8303"></path><path d="M606.786371 0.085331c-92.434445 2.261263-176.261159 48.425153-228.846182 121.638865l-2.64525 3.754549-2.922576-2.453256a161.360291 161.360291 0 0 0-101.916815-36.244201c-90.087851 0-163.130902 73.811027-163.130902 164.880181l0.138662 6.901118c0.575982 13.75957 2.837245 27.252482 6.645126 40.212076l1.450621 4.565191C46.270554 337.58945 0 409.224545 0 490.299345l0.085331 5.96248c2.325261 83.336062 53.427664 155.621803 127.078695 186.447507l5.077175 2.03727-0.789309 5.226503a288.012333 288.012333 0 0 0-2.666583 38.964116c0 162.949574 130.694582 295.03078 291.937543 295.03078l7.231774-0.085331c86.333302-2.154599 165.424164-42.526671 218.478506-108.049956l5.247836-6.751789 3.903878 2.591919a161.136298 161.136298 0 0 0 87.133277 25.524535c90.077185 0 163.141568-73.811027 163.141569-164.890847l-0.213327-8.021083c-0.255992-5.333167-0.75731-10.623668-1.525285-15.860837l-0.490652-2.847911 0.55465-0.223993C981.921315 711.295105 1034.634334 633.29221 1034.634334 544.516317l-0.08533-6.186473c-2.389259-86.290637-54.611627-161.552285-130.683916-194.767247l-2.026604-0.853307 1.183963-7.391769c1.877275-13.343583 2.815912-26.793829 2.815912-40.276074C905.838359 132.113205 775.143777 0 613.900816 0l-7.114445 0.085331z m7.125111 69.341833c123.281481 0 223.246357 101.031509 223.246357 225.624949 0 20.47936-2.911909 40.894722-8.597065 61.246086l-9.5997 34.505588 34.430924 8.597065c65.640615 16.394154 112.561816 75.997625 112.561816 145.126132 0 69.043176-46.771872 128.593315-112.273825 145.062133l-38.441465 9.653032 14.911534 37.076174a96.210327 96.210327 0 0 1 7.007781 35.988209c0 52.734352-42.292012 95.463683-94.461048 95.463684a93.607741 93.607741 0 0 1-71.709759-33.470955l-31.860338-37.609491-24.137912 43.091987c-39.390769 70.3978-112.95647 114.769747-194.26593 114.769747-123.302813 0-223.246357-101.010177-223.246356-225.614283 0-19.754049 2.741248-39.497432 8.08508-59.336813l9.685031-35.92421-36.126871-7.242441C115.356395 613.634157 68.691187 556.8146 68.691187 490.288678c0-63.432684 42.569336-118.268304 102.556795-134.107809l46.142558-12.180952-26.068519-40.372072a95.314355 95.314355 0 0 1-15.306188-51.966376c0-52.713019 42.292012-95.463683 94.439715-95.463684 33.492287 0 63.902003 17.834109 80.925471 46.473215l33.172297 55.827589 27.359145-58.963491C448.465985 120.742893 526.543546 69.416497 613.922148 69.416497l-0.010666 0.010667z" fill="#FFFFFF" p-id="8304"></path><path d="M383.988 441.564868l-24.617897-66.504589L139.974292 330.656334A172.517276 172.517276 0 0 0 42.665333 486.29947C42.665333 563.310397 92.530442 628.353697 161.27496 650.646334L383.988 441.5862l0.010667-0.021332z" fill="#1BA8E0" p-id="8305"></path><path d="M341.930648 330.656334L351.989 153.061883A124.977428 124.977428 0 0 0 264.407737 117.329667C194.948575 117.329667 138.662333 173.594575 138.662333 243.000406c0 17.460788 3.797215 33.982938 10.271679 49.0758L341.930648 330.656334z" fill="#EF4F99" p-id="8306"></path><path d="M383.988 360.042082l28.777768 77.725571L628.716353 554.649334l238.488547-199.748425A261.858484 261.858484 0 0 0 874.639334 293.964147C874.639334 149.275335 758.749622 31.999 615.788757 31.999c-93.43708 0-175.013198 50.313094-220.473111 125.468079L383.988 360.042082z" fill="#FCD20B" p-id="8307"></path><path d="M671.979001 680.832057l-53.225004-104.743393L405.757987 458.652334 173.541244 680.629397A260.450528 260.450528 0 0 0 170.661333 718.622876C170.661333 863.706343 284.759101 981.302668 425.480037 981.302668c88.925221 0 167.045446-47.070529 212.622689-118.236305L671.979001 680.821391v0.010666z" fill="#19BCB1" p-id="8308"></path><path d="M894.40405 373.321667L650.646334 575.171359l49.299793 94.215723L876.8046 714.644334C949.836984 690.389092 1002.635334 621.751237 1002.635334 540.516442c0.170661-71.869754-42.132017-137.211712-108.231284-167.194775" fill="#117AA2" p-id="8309"></path><path d="M713.001719 703.978001L682.645334 872.538067A116.316365 116.316365 0 0 0 752.339156 895.972001C819.857046 895.972001 874.639334 837.808485 874.639334 765.992063c0-6.28247-0.586648-12.415612-1.418622-18.452757L713.001719 703.978001z" fill="#92C83E" p-id="8310"></path></svg>