<?xml version="1.0" standalone="no"?><!DOCTYPE svg PUBLIC "-//W3C//DTD SVG 1.1//EN" "http://www.w3.org/Graphics/SVG/1.1/DTD/svg11.dtd"><svg t="1761724850778" class="icon" viewBox="0 0 1024 1024" version="1.1" xmlns="http://www.w3.org/2000/svg" p-id="6117" xmlns:xlink="http://www.w3.org/1999/xlink" width="200" height="200"><path d="M0 0m170.666667 0l682.666666 0q170.666667 0 170.666667 170.666667l0 682.666666q0 170.666667-170.666667 170.666667l-682.666666 0q-170.666667 0-170.666667-170.666667l0-682.666666q0-170.666667 170.666667-170.666667Z" fill="#338AC4" p-id="6118"></path><path d="M247.381333 215.530667c8.277333 1.6 16.426667 4.309333 25.024 8.746666 36.928 19.2 71.808 42.24 105.408 66.794667 44.416 32.490667 88.32 65.706667 133.589334 96.896 36.394667 25.088 77.653333 30.912 120.384 20.48 27.008-6.570667 53.482667-15.424 80.106666-23.509333 27.776-8.426667 55.893333-13.248 84.608-6.250667a50.794667 50.794667 0 0 1 35.136 29.184c7.381333 16.213333 17.92 28.586667 33.664 37.162667 2.709333 1.472 4.949333 3.84 7.04 6.4l4.138667 5.333333c0.704 0.874667 1.408 1.728 2.133333 2.56-5.973333 1.088-11.946667 3.114667-17.92 3.157333-43.946667 0.170667-81.792 14.698667-113.706666 45.568-31.509333 30.442667-56.533333 65.984-81.578667 101.546667-33.536 47.530667-69.845333 92.266667-118.890667 124.949333-62.784 41.813333-133.184 61.824-208.362666 61.802667-13.482667 0-163.029333-12.501333-161.28-20.586667l0.704-3.242666c1.557333-0.384 3.093333-0.938667 4.693333-1.130667a230.762667 230.762667 0 0 0 91.285333-30.464c33.984-19.84 57.962667-48.277333 65.92-87.381333 6.613333-32.384 3.2-64.96-14.208-93.397334a1275.029333 1275.029333 0 0 0-65.344-95.573333c-18.645333-25.024-36.586667-50.709333-51.626666-78.122667-15.488-28.117333-29.333333-57.685333-34.645334-89.6-2.325333-13.952-5.034667-31.36-0.661333-45.141333 4.693333-14.826667 24.597333-38.122667 40.896-38.336 12.096-0.170667 22.890667 0.085333 33.493333 2.154667z m527.125334 185.194666a16.64 16.64 0 1 0 0 33.322667 16.64 16.64 0 0 0 0-33.322667z" fill="#FFFFFF" p-id="6119"></path></svg>