<?xml version="1.0" standalone="no"?><!DOCTYPE svg PUBLIC "-//W3C//DTD SVG 1.1//EN" "http://www.w3.org/Graphics/SVG/1.1/DTD/svg11.dtd"><svg t="1761724911388" class="icon" viewBox="0 0 1024 1024" version="1.1" xmlns="http://www.w3.org/2000/svg" p-id="7167" xmlns:xlink="http://www.w3.org/1999/xlink" width="200" height="200"><path d="M653.253381 338.196101c-2.767307-8.225863-8.617849-12.128175-17.551627-11.701085a2210.919997 2210.919997 0 0 1-134.562477-70.20651 6872.632233 6872.632233 0 0 0-35.103255 23.40217c-11.256444 1.228614-13.204674 5.130926-5.850542 11.701085a2608.628173 2608.628173 0 0 1 198.918444 122.861392 33.506057 33.506057 0 0 0 5.850542 17.551627 1324.638871 1324.638871 0 0 1-175.516274 108.235036c-32.745486 6.377091-63.946429 2.48063-93.608679-11.701085a2146.944316 2146.944316 0 0 0-117.01085-78.982324c-2.767307-8.225863-8.617849-12.128175-17.551627-11.701084-11.314949-3.568831-21.061953-9.419373-29.252712-17.551628-2.767307-8.225863-8.617849-12.128175-17.551628-11.701085-11.314949-3.568831-21.061953-9.419373-29.252712-17.551627-2.767307-8.225863-8.617849-12.128175-17.551627-11.701085-13.760476-4.914456-25.461561-12.719079-35.103255-23.40217-7.798773-11.701085-7.798773-23.40217 0-35.103255 1.948231-5.850542 5.850542-9.752854 11.701085-11.701085 8.933778 0.42709 14.784321-3.475222 17.551627-11.701085 17.598432-7.260523 35.150059-6.283483 52.654882 2.925272l198.918444 122.861391c24.168591 1.532842 45.62253-6.271782 64.355967-23.402169-5.359097-1.626451-9.255558-4.551722-11.701085-8.775814-2.767307-8.225863-8.617849-12.128175-17.551627-11.701085a144.906236 144.906236 0 0 1-46.80434-29.252712c-2.767307-8.225863-8.617849-12.128175-17.551627-11.701085a351.471339 351.471339 0 0 1-64.355967-40.953798c-2.767307-8.225863-8.617849-12.128175-17.551628-11.701085a144.906236 144.906236 0 0 1-46.804339-29.252712l5.850542-11.701085a2036.263753 2036.263753 0 0 1 181.366816-102.384493c11.701085-3.902312 23.40217-3.902312 35.103255 0A8208.112159 8208.112159 0 0 1 790.741129 320.644473c4.96126 36.039342-10.642137 57.493281-46.80434 64.355967a663.170689 663.170689 0 0 1-90.683408-46.804339z" fill="#1AB194" opacity=".999" p-id="7168"></path><path d="M448.484395 74.92169h40.953797l362.733633 216.470071c-5.803738-1.006293-9.700199 0.947788-11.701085 5.850542a17476.74045 17476.74045 0 0 1-368.584175-210.619528 17970.613992 17970.613992 0 0 0-380.28526 216.470071c-2.000886-4.902755-5.897347-6.856836-11.701085-5.850543a17535.538402 17535.538402 0 0 1 368.584175-222.320613z" fill="#1AA999" opacity=".996" p-id="7169"></path><path d="M261.267036 244.587421l-5.850542 11.701085c-7.354132-6.570159-5.405901-10.472471 5.850542-11.701085z" fill="#179E9F" opacity=".282" p-id="7170"></path><path d="M466.036022 279.690676l-5.850542 11.701085c-7.354132-6.570159-5.405901-10.472471 5.850542-11.701085z" fill="#179E9E" opacity=".31" p-id="7171"></path><path d="M302.220833 285.541218c8.933778-0.42709 14.784321 3.475222 17.551628 11.701085-8.933778 0.42709-14.784321-3.475222-17.551628-11.701085z" fill="#18A49C" opacity=".51" p-id="7172"></path><path d="M852.171825 291.391761a7583.268374 7583.268374 0 0 1 5.850542 421.239057c-7.798773 0-11.701085-3.902312-11.701084-11.701085 1.883875-135.001267-0.064356-269.563744-5.850543-403.68743 2.000886-4.902755 5.897347-6.856836 11.701085-5.850542z" fill="#19B194" opacity=".673" p-id="7173"></path><path d="M79.90022 297.242303c5.803738-1.006293 9.700199 0.947788 11.701085 5.850543a7163.193574 7163.193574 0 0 1 5.850542 403.68743c-2.000886 4.902755-5.897347 6.856836-11.701085 5.850542-5.838841-137.452645-7.781221-275.911583-5.850542-415.388515z" fill="#1AB294" opacity=".571" p-id="7174"></path><path d="M161.807814 297.242303c-2.767307 8.225863-8.617849 12.128175-17.551627 11.701085 2.767307-8.225863 8.617849-12.128175 17.551627-11.701085z" fill="#18A39C" opacity=".773" p-id="7175"></path><path d="M635.701754 326.495016c8.933778-0.42709 14.784321 3.475222 17.551627 11.701085-8.933778 0.42709-14.784321-3.475222-17.551627-11.701085z" fill="#17A19E" opacity=".333" p-id="7176"></path><path d="M132.555102 320.644473c-7.798773 11.701085-7.798773 23.40217 0 35.103255-15.603397-11.701085-15.603397-23.40217 0-35.103255z" fill="#189F9E" opacity=".078" p-id="7177"></path><path d="M384.128428 338.196101c8.933778-0.42709 14.784321 3.475222 17.551627 11.701085-8.933778 0.42709-14.784321-3.475222-17.551627-11.701085z" fill="#18A29C" opacity=".463" p-id="7178"></path><path d="M167.658357 379.149898c8.933778-0.42709 14.784321 3.475222 17.551627 11.701085-8.933778 0.42709-14.784321-3.475222-17.551627-11.701085z" fill="#17A29D" opacity=".431" p-id="7179"></path><path d="M448.484395 379.149898c8.933778-0.42709 14.784321 3.475222 17.551627 11.701085-8.933778 0.42709-14.784321-3.475222-17.551627-11.701085z" fill="#18A39C" opacity=".498" p-id="7180"></path><path d="M214.462696 408.40261c8.933778-0.42709 14.784321 3.475222 17.551628 11.701085-8.933778 0.42709-14.784321-3.475222-17.551628-11.701085z" fill="#18A39C" opacity=".451" p-id="7181"></path><path d="M659.103924 414.253153c17.58088 5.119225 19.529111 10.969767 5.850542 17.551627a33.506057 33.506057 0 0 1-5.850542-17.551627z" fill="#18A29D" opacity=".569" p-id="7182"></path><path d="M787.815858 425.954238l11.701085 81.907594c3.077385 19.353594-4.721388 32.03172-23.40217 38.028526l-280.826038 163.815189c-42.223365 9.477879-79.27485 0.702065-111.160307-26.327441-2.767307-8.225863-8.617849-12.128175-17.551628-11.701085a1758.5151 1758.5151 0 0 1-204.768986-117.010849c-2.767307-8.225863-8.617849-12.128175-17.551627-11.701085-9.27896-18.739288-13.181272-39.216186-11.701085-61.430696 0.117011-19.020114 4.013472-35.600551 11.701085-49.729611a4220.990872 4220.990872 0 0 1 181.366816 105.309764c3.13004 11.385156 10.928813 17.235698 23.40217 17.551628h5.850542c3.13004 11.385156 10.928813 17.235698 23.40217 17.551627 35.776067 25.520066 74.775783 32.3535 117.01085 20.476899a10988.137825 10988.137825 0 0 1 292.527123-166.74046z" fill="#1AB194" opacity=".999" p-id="7183"></path><path d="M261.267036 437.655323c8.933778-0.42709 14.784321 3.475222 17.551627 11.701084-8.933778 0.42709-14.784321-3.475222-17.551627-11.701084z" fill="#18A19D" opacity=".369" p-id="7184"></path><path d="M144.256187 431.80478c-7.687613 14.12906-11.584074 30.709497-11.701085 49.729611-1.480187 22.21451 2.422125 42.691408 11.701085 61.430696-5.82714 0.503147-10.706493-1.450935-14.626356-5.850543a168.671139 168.671139 0 0 0-8.775814-23.402169c7.687613-30.405269 7.687613-60.635022 0-90.683409 9.59489-2.035989 17.393663 0.889282 23.40217 8.775814z" fill="#18A79A" opacity=".694" p-id="7185"></path><path d="M787.815858 425.954238c0.351033-3.176845 2.299263-5.125075 5.850542-5.850543a334.358502 334.358502 0 0 1 5.850543 87.758137l-11.701085-81.907594z" fill="#159BA0" opacity=".228" p-id="7186"></path><path d="M325.623003 537.114544c10.121438 3.077385 17.926062 8.927928 23.40217 17.551628-12.473357-0.315929-20.27213-6.166472-23.40217-17.551628z" fill="#19A39C" opacity=".875" p-id="7187"></path><path d="M144.256187 542.965087c8.933778-0.42709 14.784321 3.475222 17.551627 11.701085-8.933778 0.42709-14.784321-3.475222-17.551627-11.701085z" fill="#18A49C" opacity=".471" p-id="7188"></path><path d="M354.875715 554.666172c10.121438 3.077385 17.926062 8.927928 23.40217 17.551627-12.473357-0.315929-20.27213-6.166472-23.40217-17.551627z" fill="#19A49B" opacity=".882" p-id="7189"></path><path d="M793.6664 572.217799l11.701085 81.907595c3.077385 19.353594-4.721388 32.025869-23.40217 38.028526a7322.392685 7322.392685 0 0 0-239.872241 140.413019 229.575286 229.575286 0 0 1-64.355967 26.327441 612.276821 612.276821 0 0 1-52.654882-5.850542c-24.309004-7.266374-45.762943-18.967459-64.355967-35.103255-2.767307-8.225863-8.617849-12.128175-17.551627-11.701085-5.803738 1.006293-9.700199-0.947788-11.701085-5.850543-2.767307-8.225863-8.617849-12.128175-17.551628-11.701085a422.567131 422.567131 0 0 1-81.907594-46.804339c-2.767307-8.225863-8.617849-12.128175-17.551628-11.701085-5.803738 1.006293-9.700199-0.947788-11.701085-5.850543-2.767307-8.225863-8.617849-12.128175-17.551627-11.701085a351.208064 351.208064 0 0 1-52.654882-29.252712c-5.183581-4.826698-7.131811-10.67724-5.850543-17.551627 2.100345-30.709497 7.950887-59.96221 17.551628-87.758137l269.124953 157.964646c2.223206 8.372126 8.073749 13.245628 17.551628 14.626356 9.161949 4.475665 16.966573 3.498624 23.402169-2.925271a264.637587 264.637587 0 0 0 87.758137-32.177983 4021.779901 4021.779901 0 0 1 251.573326-143.338291z" fill="#1AB194" opacity=".998" p-id="7190"></path><path d="M144.256187 578.068342c-9.60074 27.795927-15.451283 57.04864-17.551628 87.758137a405.120813 405.120813 0 0 0-5.850542-93.60868c8.957181-5.38835 16.761804-3.440119 23.40217 5.850543z" fill="#18A69A" opacity=".714" p-id="7191"></path><path d="M793.6664 572.217799c0.351033-3.176845 2.299263-5.125075 5.850543-5.850542a334.358502 334.358502 0 0 1 5.850542 87.758137l-11.701085-81.907595z" fill="#1599A1" opacity=".168" p-id="7192"></path><path d="M366.5768 671.677021c8.933778-0.42709 14.784321 3.475222 17.551628 11.701085-8.933778 0.42709-14.784321-3.475222-17.551628-11.701085z" fill="#18A39C" opacity=".412" p-id="7193"></path><path d="M846.321283 700.929733c0 7.798773 3.902312 11.701085 11.701084 11.701085a11660.458762 11660.458762 0 0 0-374.434717 234.021699h-29.252713l-368.584175-234.021699c5.803738 1.006293 9.700199-0.947788 11.701085-5.850542a37021.51895 37021.51895 0 0 1 371.509447 222.320614 23895.17167 23895.17167 0 0 0 377.359989-228.171157z" fill="#1AA999" opacity=".978" p-id="7194"></path><path d="M343.174631 806.239498c8.933778-0.42709 14.784321 3.475222 17.551627 11.701085-8.933778 0.42709-14.784321-3.475222-17.551627-11.701085z" fill="#18A29D" opacity=".408" p-id="7195"></path><path d="M313.921918 788.68787c8.933778-0.42709 14.784321 3.475222 17.551628 11.701085-8.933778 0.42709-14.784321-3.475222-17.551628-11.701085z" fill="#18A39C" opacity=".463" p-id="7196"></path><path d="M413.38114 736.032988a123.855984 123.855984 0 0 0 40.953797 11.701085c-6.435597 6.423896-14.24022 7.400936-23.402169 2.925271-9.477879-1.380728-15.328421-6.25423-17.551628-14.626356z" fill="#18A79A" opacity=".733" p-id="7197"></path><path d="M214.462696 730.182446c8.933778-0.42709 14.784321 3.475222 17.551628 11.701085-8.933778 0.42709-14.784321-3.475222-17.551628-11.701085z" fill="#17A19D" opacity=".361" p-id="7198"></path><path d="M185.209984 712.630818c8.933778-0.42709 14.784321 3.475222 17.551627 11.701085-8.933778 0.42709-14.784321-3.475222-17.551627-11.701085z" fill="#17A19D" opacity=".388" p-id="7199"></path><path d="M425.082225 853.043838c17.446318 2.708801 34.997945 4.657032 52.654882 5.850542-18.294646 7.693463-35.846274 5.745233-52.654882-5.850542z" fill="#18A29C" opacity=".039" p-id="7200"></path></svg>