<?xml version="1.0" standalone="no"?><!DOCTYPE svg PUBLIC "-//W3C//DTD SVG 1.1//EN" "http://www.w3.org/Graphics/SVG/1.1/DTD/svg11.dtd"><svg t="1757079455652" class="icon" viewBox="0 0 1024 1024" version="1.1" xmlns="http://www.w3.org/2000/svg" p-id="36103" xmlns:xlink="http://www.w3.org/1999/xlink" width="200" height="200"><path d="M352 260L520 160 688 260v200L520 560 352 460z" fill="#1680F4" p-id="36104"></path><path d="M442.24 304h24.32v112h-24.32zM485.44 359.52a55.52 55.52 0 0 1 16-41.28 53.6 53.6 0 0 1 39.2-16 56.32 56.32 0 0 1 57.92 57.76 56 56 0 0 1-57.12 57.76 54.24 54.24 0 0 1-40.64-16 57.12 57.12 0 0 1-15.36-42.24z m56.96-35.04a28 28 0 0 0-22.88 9.76 38.4 38.4 0 0 0-8.64 25.92 35.84 35.84 0 0 0 8.8 24.96 28.8 28.8 0 0 0 22.4 9.92 29.12 29.12 0 0 0 22.88-9.76 42.4 42.4 0 0 0 0-51.04 29.76 29.76 0 0 0-22.56-9.76z" fill="#FFFFFF" p-id="36105"></path><path d="M160 596L320 496l160 100v200L320 896l-160-100z" fill="#5E5C5C" p-id="36106"></path><path d="M544 596L704 496l160 100v200L704 896l-160-100z" fill="#5E5C5C" p-id="36107"></path><path d="M250.24 640h24.32v112h-24.32zM293.44 695.52a55.52 55.52 0 0 1 16-41.28 53.6 53.6 0 0 1 39.2-16 57.76 57.76 0 1 1 0.8 115.52 54.24 54.24 0 0 1-40.64-16 57.12 57.12 0 0 1-15.36-42.24z m56.96-35.04a28 28 0 0 0-22.88 9.76 38.4 38.4 0 0 0-8.64 25.92 35.84 35.84 0 0 0 8.8 24.96 28.8 28.8 0 0 0 22.4 9.92 29.12 29.12 0 0 0 22.88-9.76 42.4 42.4 0 0 0 0-51.04 29.76 29.76 0 0 0-22.56-9.76z" fill="#FFFFFF" p-id="36108"></path><path d="M634.24 640h24.32v112h-24.32zM677.44 695.52a55.52 55.52 0 0 1 16-41.28 53.6 53.6 0 0 1 39.2-16 57.76 57.76 0 1 1 0.8 115.52 54.24 54.24 0 0 1-40.64-16 57.12 57.12 0 0 1-15.36-42.24z m56.96-35.04a28 28 0 0 0-22.88 9.76 38.4 38.4 0 0 0-8.64 25.92 35.84 35.84 0 0 0 8.8 24.96 28.8 28.8 0 0 0 22.4 9.92 29.12 29.12 0 0 0 22.88-9.76 42.4 42.4 0 0 0 0-51.04 29.76 29.76 0 0 0-22.56-9.76z" fill="#FFFFFF" p-id="36109"></path></svg>