<?xml version="1.0" standalone="no"?><!DOCTYPE svg PUBLIC "-//W3C//DTD SVG 1.1//EN" "http://www.w3.org/Graphics/SVG/1.1/DTD/svg11.dtd"><svg t="1761724806361" class="icon" viewBox="0 0 1024 1024" version="1.1" xmlns="http://www.w3.org/2000/svg" p-id="5137" xmlns:xlink="http://www.w3.org/1999/xlink" width="200" height="200"><path d="M981.24555 453.333057c-1.833826-17.278363-4.521572-37.244472-9.982054-59.044407s-14.548622-45.435696-26.365503-70.863287c-12.713796-24.530676-28.157333-50.896179-49.062352-75.427855-8.191224-9.983054-17.278363-19.070194-26.365503-29.053248 14.548622-57.252577-17.278363-107.210844-17.278363-107.210844-55.41875-3.626656-89.932481 17.278363-102.646277 26.365502-1.834826-0.895915-4.522572-1.834826-6.356398-2.729741-9.087139-3.626656-19.070194-7.253313-29.053248-10.921965-9.983054-2.730741-20.009105-6.357398-29.992159-8.191225-9.983054-2.730741-20.90502-4.522572-31.783989-6.357397-1.833826 0-3.625657-0.895915-5.460483-0.895915C623.26446 32.679904 554.235999 0 554.235999 0c-79.053512 50.896179-94.498049 119.028725-94.498048 119.028725s0 1.834826-0.895916 3.626656c-4.521572 0.895915-8.191224 2.729741-12.712795 3.625657-5.461483 1.834826-11.817881 3.626656-17.278364 6.357398s-11.817881 4.521572-17.278363 7.252313c-11.817881 5.460483-22.69685 10.921965-34.51473 17.278363a363.485568 363.485568 0 0 0-31.78299 20.008105c-1.834826-0.894915-2.730741-1.833826-2.730741-1.833827-106.314929-40.871128-200.770982 8.191224-200.770982 8.191224-8.190224 113.568242 42.705955 184.43053 52.689009 197.144326-2.729741 7.252313-4.522572 13.608711-7.252313 20.904019a454.697928 454.697928 0 0 0-17.278363 79.054512c-0.895915 3.625657-0.895915 8.191224-1.834826 11.81688-98.123705 48.166437-127.177953 148.081973-127.177953 148.081973 81.785253 94.498049 178.074132 99.958531 178.074132 99.958531a409.988163 409.988163 0 0 0 41.810039 61.776149c6.356398 8.191224 13.608711 15.443537 20.90402 23.634761-29.991159 85.410909 4.522572 157.169112 4.522571 157.169112 91.767307 3.626656 151.708629-39.975213 164.421425-49.958268l27.261418 8.191224c28.157333 7.253313 57.253577 11.817881 85.410909 12.713796h37.244472c42.705955 61.775148 119.028725 69.966372 119.028725 69.966372 53.584924-57.252577 57.253577-112.671327 57.253577-125.385123v-5.460482c10.920965-8.191224 21.799935-16.340452 32.7219-25.427592 21.800935-19.070194 39.975213-41.80904 56.314666-65.401804 1.834826-1.833826 2.729741-4.521572 4.522571-6.356398 60.879233 3.626656 103.584188-38.140387 103.584188-38.140387-9.983054-63.609974-46.331611-94.498049-53.583924-99.958532l-0.895915-0.895915-0.895915-0.895915-0.895916-0.895915c0-3.626656 0.895915-7.252313 0.895916-11.817881 0.895915-7.252313 0.895915-13.608711 0.895915-20.904019v-26.365503c0-1.834826 0-3.626656-0.895915-5.461483l-1.834827-10.920965c-0.895915-7.253313-2.729741-13.609711-3.625656-20.90502a269.926431 269.926431 0 0 0-30.888074-76.32277 283.02319 283.02319 0 0 0-51.792094-61.776148 251.283197 251.283197 0 0 0-65.401805-41.80904 229.013306 229.013306 0 0 0-71.759202-20.009104c-11.816881-1.834826-24.530676-1.834826-36.348557-1.834826h-18.174279c-6.356398 0.895915-12.712796 1.834826-18.174278 2.730741-24.530676 4.522572-47.227526 13.608711-67.235631 25.427591s-37.244472 27.260418-51.793094 44.495785a182.766687 182.766687 0 0 0-32.7219 55.419751c-7.252313 19.070194-11.817881 39.974213-12.713796 59.044406v21.800935c0 2.729741 0 4.522572 0.895915 7.252313a155.377282 155.377282 0 0 0 29.992159 77.219686c10.921965 14.548622 22.69685 25.427591 36.348557 34.51373 13.608711 9.087139 27.261418 15.444537 41.80904 20.009105s28.157333 6.356398 40.871128 5.460483h19.028197c1.833826 0 3.625657-0.895915 4.521572-0.895916 1.834826 0 2.729741-0.895915 4.522572-0.895915 2.729741-0.895915 6.356398-1.833826 9.087139-2.729741 5.460483-1.834826 10.920965-4.522572 16.339452-6.357398 5.460483-2.729741 9.983054-5.460483 13.608711-8.191224 0.896915-0.895915 2.730741-1.833826 3.626657-2.729741a10.23903 10.23903 0 0 0 1.834826-14.548622 12.713796 12.713796 0 0 0-13.608711-2.729742c-0.896915 0.895915-1.834826 0.895915-3.626657 1.833827a61.007221 61.007221 0 0 1-11.81788 4.522571c-4.522572 0.895915-9.087139 2.729741-13.608711 3.626657-2.730741 0-4.522572 0.895915-7.253313 0.895915h-15.401541s-0.895915 0 0 0h-3.668652c-0.938911 0-2.729741 0-3.626657-0.895915-9.983054-1.834826-20.90402-4.522572-30.887074-9.08714s-20.009105-10.921965-28.157333-19.070193c-9.087139-8.191224-16.340452-17.278363-22.69685-28.157333s-9.983054-22.69685-11.81788-34.51473c-0.895915-6.356398-1.833826-12.712796-0.895916-19.070194v-5.460483c0 0.895915 0 0 0 0v-4.564567c0-3.626656 0.895915-6.357398 1.834827-9.983055a132.851415 132.851415 0 0 1 39.079298-73.593028c5.460483-5.461483 10.920965-9.983054 17.278363-13.609711 6.356398-4.522572 12.712796-8.191224 19.070194-10.921966s13.608711-5.460483 20.904019-7.252313c7.253313-1.834826 14.548622-3.626656 21.800935-3.626656 3.626656 0 7.252313-0.895915 10.921966-0.895915h7.252313c0.895915 0 0 0 0 0h3.626656a172.613649 172.613649 0 0 1 69.070457 20.90502c29.053248 16.339452 53.584924 40.871128 68.132546 70.863287 7.252313 14.547622 12.712796 30.887074 15.443538 48.165437 0.895915 4.522572 0.895915 8.191224 1.834826 12.713796v23.634761c0 4.522572-0.895915 9.087139-0.895915 13.608711-0.895915 4.522572-0.895915 9.088139-1.834827 13.609711l-2.729741 13.609711c-0.896915 4.522572-5.461483 17.278363-8.192224 26.365502s-15.443537 33.617815-26.365503 48.165438a220.309131 220.309131 0 0 1-85.409909 69.967372c-17.278363 7.252313-34.514731 13.608711-52.689009 16.339452a137.416983 137.416983 0 0 1-27.261417 2.730741h-13.608711c0.895915 0 0 0 0 0h-0.895916c-4.522572 0-9.983054 0-14.548621-0.895915-20.008105-1.834826-39.078298-5.460483-58.148492-10.921965s-37.244472-12.712796-54.522835-21.799935a296.761889 296.761889 0 0 1-89.933481-74.488944c-11.816881-15.444537-22.69585-31.783989-31.78299-49.062353s-15.444537-35.452642-20.905019-53.584924a234.174817 234.174817 0 0 1-9.08714-56.314665v-28.157333c0-9.086139 0.895915-19.069194 2.729742-29.052248 0.896915-9.983054 2.730741-19.070194 4.522571-29.053248s4.522572-19.070194 7.253313-29.053248 11.816881-37.244472 20.008105-54.522835c16.340452-34.514731 37.244472-65.401805 61.776148-89.933481 6.356398-6.356398 12.712796-11.816881 20.008105-17.278363 2.730741-2.729741 9.087139-8.191224 16.340452-12.712796s14.547622-9.087139 22.69585-12.713795c3.626656-1.834826 7.253313-3.626656 11.817881-5.460483 1.834826-0.895915 3.626656-1.834826 6.356398-2.730742 1.834826-0.895915 3.626656-1.834826 6.357397-2.729741 8.191224-3.626656 16.339452-6.357398 24.530677-9.088139 1.834826-0.895915 4.522572-0.895915 6.356398-1.833826s4.522572-0.895915 6.357397-1.834827 8.191224-1.834826 12.712796-3.626656c1.834826-0.895915 4.522572-0.895915 6.357398-1.833826 1.833826 0 4.521572-0.895915 6.356398-0.895915s4.522572-0.895915 6.356398-0.895916l7.253313-1.834826c1.833826 0 4.521572-0.895915 6.356397-0.895915 2.729741 0 4.522572-0.895915 7.252313-0.895915 1.834826 0 5.461483-0.895915 7.253313-0.895915s2.729741 0 4.521572-0.895915h6.357398c2.729741 0 4.521572 0 7.252313-0.895915h3.626656s0.895915 0 0 0h33.617816c16.339452 0.895915 32.7219 2.729741 48.165437 5.460482a308.620765 308.620765 0 0 1 87.20274 29.053248 327.478979 327.478979 0 0 1 70.863287 46.331611c0.895915 0.895915 2.729741 1.834826 3.625657 3.626657 0.895915 0.895915 2.730741 1.834826 3.626656 3.626656 2.729741 1.833826 4.522572 4.521572 7.252313 6.356398s4.522572 4.522572 7.253313 6.356398c1.833826 2.730741 4.521572 4.522572 6.356398 7.253313a336.181155 336.181155 0 0 1 59.984318 84.471998c0.894915 0.895915 0.894915 1.833826 1.833826 3.625657 0.895915 0.895915 0.895915 1.834826 1.834826 3.626656s1.833826 4.522572 3.625657 6.356398c0.895915 1.834826 1.834826 4.522572 2.730741 6.357398s1.834826 4.521572 2.729742 6.356398c3.626656 8.191224 6.357398 16.339452 9.088139 24.530676 4.521572 12.713796 7.252313 23.635761 9.983054 32.7229a8.703176 8.703176 0 0 0 8.191224 6.356398c4.521572 0 7.252313-3.626656 7.252313-8.191224-0.895915-10.921965-0.895915-22.69685-1.834826-36.348557z" fill="#6306B2" p-id="5138"></path></svg>