<?xml version="1.0" standalone="no"?><!DOCTYPE svg PUBLIC "-//W3C//DTD SVG 1.1//EN" "http://www.w3.org/Graphics/SVG/1.1/DTD/svg11.dtd"><svg t="1757147546033" class="icon" viewBox="0 0 1024 1024" version="1.1" xmlns="http://www.w3.org/2000/svg" p-id="12830" xmlns:xlink="http://www.w3.org/1999/xlink" width="200" height="200"><path d="M512 512m-512 0a512 512 0 1 0 1024 0 512 512 0 1 0-1024 0Z" fill="#3587ED" p-id="12831"></path><path d="M715.52 768H308.96A37.92 37.92 0 0 1 272 729.44v-422.4A37.92 37.92 0 0 1 308.96 268.48h18.4v57.76a37.92 37.92 0 0 0 36.8 38.56h295.68a37.92 37.92 0 0 0 36.96-38.56V268.48h18.4c20.736 0.64 37.152 17.792 36.8 38.56v422.4A37.28 37.28 0 0 1 715.84 768h-0.32z m-82.56-261.28a28 28 0 0 0-39.52 0L494.72 604.8 448 559.04a27.68 27.68 0 0 0-39.2 0 27.04 27.04 0 0 0 0 38.24l65.92 65.12a27.68 27.68 0 0 0 39.2 0l118.56-117.28a27.2 27.2 0 0 0 0-38.4h0.48z m-28.48-180.48h-184.48A37.92 37.92 0 0 1 383.04 288v-19.52C456.96 212.16 457.76 211.2 477.12 192h73.28c18.08 17.92 17.6 20.16 90.88 76.48V288a37.44 37.44 0 0 1-36.16 38.56l-0.64-0.32zM512 230.4a38.56 38.56 0 1 0 36.8 40.32v-1.76A37.92 37.92 0 0 0 512 230.4z" fill="#FFFFFF" p-id="12832"></path></svg>