<?xml version="1.0" standalone="no"?><!DOCTYPE svg PUBLIC "-//W3C//DTD SVG 1.1//EN" "http://www.w3.org/Graphics/SVG/1.1/DTD/svg11.dtd"><svg t="1757078718548" class="icon" viewBox="0 0 1024 1024" version="1.1" xmlns="http://www.w3.org/2000/svg" p-id="17048" xmlns:xlink="http://www.w3.org/1999/xlink" width="200" height="200"><path d="M512 0c282.770286 0 512 229.229714 512 512s-229.229714 512-512 512S0 794.770286 0 512 229.229714 0 512 0z m-1.536 146.285714c-58.88 0-217.746286 270.628571-217.746286 376.429715 0 110.445714 88.576 200.996571 200.996572 209.225142v68.388572l0.109714 1.865143a16.457143 16.457143 0 0 0 16.64 14.116571 16.347429 16.347429 0 0 0 16.749714-15.945143v-68.425143c112.420571-8.228571 200.996571-98.742857 200.996572-209.225142C728.210286 416.914286 569.344 146.285714 510.464 146.285714z m-175.981714 327.277715l159.232 116.845714v109.129143c-93.915429-8.155429-167.497143-84.224-167.497143-176.822857 0-13.421714 2.925714-30.134857 8.265143-49.152z m351.963428 0c5.339429 19.017143 8.265143 35.730286 8.265143 49.152l-0.073143 4.754285c-2.450286 90.441143-75.117714 164.059429-167.424 172.068572v-109.165715z m-286.72-147.382858l93.988572 93.988572v129.645714l-148.48-108.909714c12.873143-34.706286 31.670857-74.276571 54.491428-114.724572z m221.44 0c22.820571 40.448 41.618286 80.018286 54.491429 114.724572l-148.48 108.909714v-129.682286zM493.714286 191.378286v183.552L420.461714 301.714286l-1.462857-1.316572a16.749714 16.749714 0 0 0-3.072-1.865143l1.353143-2.230857c28.416-46.518857 57.929143-85.686857 76.434286-104.96z m33.462857 0c18.834286 19.529143 49.005714 59.684571 77.787428 107.154285a15.872 15.872 0 0 0-3.035428 1.828572l-1.536 1.353143-73.216 73.216z" fill="#346BFF" p-id="17049"></path></svg>