<?xml version="1.0" standalone="no"?><!DOCTYPE svg PUBLIC "-//W3C//DTD SVG 1.1//EN" "http://www.w3.org/Graphics/SVG/1.1/DTD/svg11.dtd"><svg t="1761730071102" class="icon" viewBox="0 0 1206 1024" version="1.1" xmlns="http://www.w3.org/2000/svg" p-id="20409" xmlns:xlink="http://www.w3.org/1999/xlink" width="235.546875" height="200"><path d="M661.773788 578.815081a27.633752 27.633752 0 0 1 19.475763 47.511669c-85.256732 82.901257-196.768402 116.797127-314.886894 151.210054a1255.35368 1255.35368 0 0 0-221.070018 81.177738 336.833034 336.833034 0 0 0-145.235188 132.136445 801.436266 801.436266 0 0 1 320.91921-123.001795l31.540395-2.929982c172.983842-15.166966 387.159785-34.068223 580.251346-178.671454s82.096948-362.628366 77.845602-371.992819l-7.985638-15.339318 10.513465-13.78815c33.091562-43.777379 111.913824-171.317774 79.224417-236.868941-16.373429-31.942549-60.897666-48.086176-130.585279-48.086176-181.601436 0-227.159785 224.057451-229.055655 233.536804l-2.125673 12.064632-10.283663 6.204668a792.818671 792.818671 0 0 0-187.231597 171.89228c-76.122083 103.928187-116.797127 165.055655-116.797128 165.630162l-3.734291 4.481149-168.502693 163.906642c35.217235-12.064632 71.008977-22.980251 106.05386-33.263913 111.339318-33.091562 216.64632-64.459605 291.964094-137.881508a27.978456 27.978456 0 0 1 19.648115-7.755835z" p-id="20410"></path><path d="M1183.368043 155.691203h-90.714542a25.278276 25.278276 0 0 1 0-50.441652h90.714542a25.278276 25.278276 0 0 1 0 50.441652z m-543.023339 868.251346a25.220826 25.220826 0 0 1-21.371634-11.89228l-100.825853-161.378815a25.278276 25.278276 0 0 1 42.800718-26.657091l100.825853 161.321364a24.876122 24.876122 0 0 1-7.583483 34.470377h-0.344704a23.78456 23.78456 0 0 1-13.443447 3.906643z" p-id="20411"></path></svg>