<?xml version="1.0" standalone="no"?><!DOCTYPE svg PUBLIC "-//W3C//DTD SVG 1.1//EN" "http://www.w3.org/Graphics/SVG/1.1/DTD/svg11.dtd"><svg t="1761729965518" class="icon" viewBox="0 0 3260 1024" version="1.1" xmlns="http://www.w3.org/2000/svg" p-id="17989" xmlns:xlink="http://www.w3.org/1999/xlink" width="636.71875" height="200"><path d="M363.93327 505.952042c-48.472125 0-78.767203 15.147539-93.914743 45.442617a257.508165 257.508165 0 0 0-30.295078 103.003266 448.367157 448.367157 0 0 0 0 127.239329c3.029508 45.442617 6.059016 81.796711 6.059016 112.091789v21.206555a106.032774 106.032774 0 0 1-9.088524 42.413109 106.032774 106.032774 0 0 1-30.295078 33.324586 175.711454 175.711454 0 0 1-75.737695 15.147539 115.121297 115.121297 0 0 1-66.649172-18.177046 148.445883 148.445883 0 0 1-36.354094-39.383602 93.914742 93.914742 0 0 1-27.265571-54.531141v-202.977024a817.967111 817.967111 0 0 1 21.206555-212.065547 281.744227 281.744227 0 0 1 66.649172-130.268837 309.009798 309.009798 0 0 1 118.150805-57.560648 642.255658 642.255658 0 0 1 163.593422-18.177047c118.150805 6.059016 209.03604 39.383602 269.626196 103.003266s90.885235 169.652438 90.885235 315.068813a684.668767 684.668767 0 0 1-3.029508 78.767203 490.780267 490.780267 0 0 0-3.029508 63.619665 339.304876 339.304876 0 0 1-6.059015 60.590156c0 6.059016-3.029508 15.147539-3.029508 24.236063a148.445883 148.445883 0 0 1-18.177047 39.383601 121.180313 121.180313 0 0 1-42.413109 33.324586 145.416375 145.416375 0 0 1-66.649172 15.147539 121.180313 121.180313 0 0 1-72.708188-18.177046 93.914742 93.914742 0 0 1-30.295078-39.383602 81.796711 81.796711 0 0 1-6.059016-60.590157c0-30.295078 3.029508-69.67868 6.059016-112.091789a448.367157 448.367157 0 0 0 0-127.239328 218.124563 218.124563 0 0 0-33.324586-103.003266 96.94425 96.94425 0 0 0-87.855727-39.383602z" fill="#646262" p-id="17990"></path><path d="M1203.106936 272.67994a527.134361 527.134361 0 0 1 136.327852 18.177047 357.481923 357.481923 0 0 1 124.209821 57.560648 366.570446 366.570446 0 0 1 84.826219 118.150805 436.249126 436.249126 0 0 1 30.295078 175.711454 457.455681 457.455681 0 0 1-30.295078 181.770469 269.626196 269.626196 0 0 1-84.826219 112.09179 384.747493 384.747493 0 0 1-124.209821 69.678679 527.134361 527.134361 0 0 1-136.327852 18.177047 487.750759 487.750759 0 0 1-133.298344-18.177047 405.954048 405.954048 0 0 1-121.180313-69.678679 269.626196 269.626196 0 0 1-84.826219-112.09179 518.045837 518.045837 0 0 1-30.295078-181.770469 493.809775 493.809775 0 0 1 30.295078-175.711454 366.570446 366.570446 0 0 1 84.826219-118.150805 309.009798 309.009798 0 0 1 118.150805-57.560648 527.134361 527.134361 0 0 1 136.327852-18.177047z m-184.799977 199.947516a103.003266 103.003266 0 0 1 18.177047-18.177047 66.649172 66.649172 0 0 0 15.147539-24.236062 45.442617 45.442617 0 0 0 15.147539-24.236063 45.442617 45.442617 0 0 0-15.147539-24.236063 36.354094 36.354094 0 0 0-42.413109 3.029508 163.593422 163.593422 0 0 0-45.442618 45.442618 121.180313 121.180313 0 0 0-27.26557 60.590156 42.413109 42.413109 0 0 0 12.118031 48.472125 12.118031 12.118031 0 0 0 18.177047 0l24.236063-21.206555a54.531141 54.531141 0 0 1 15.147539-21.206554c3.029508-9.088523 9.088523-15.147539 12.118031-24.236063z" fill="#74AB63" p-id="17991"></path><path d="M2151.342884 130.293072a142.386868 142.386868 0 0 1 9.088523-51.501633 69.67868 69.67868 0 0 1 18.177047-36.354093A90.885235 90.885235 0 0 1 2224.051072 9.11276a266.596688 266.596688 0 0 1 72.708187-9.088524c48.472125 0 84.826219 12.118031 103.003266 36.354094a163.593422 163.593422 0 0 1 27.26557 93.914742c0 99.973758 0 190.858993 3.029508 272.655704s3.029508 160.563914 3.029508 239.331118a684.668767 684.668767 0 0 1-18.177047 172.681946 242.360626 242.360626 0 0 1-57.560648 115.121297 309.009798 309.009798 0 0 1-118.150805 57.560649 763.435971 763.435971 0 0 1-181.77047 18.177046 490.780267 490.780267 0 0 1-133.298344-21.206554 351.422907 351.422907 0 0 1-121.180313-69.67868 278.714719 278.714719 0 0 1-84.826218-109.062282 384.747493 384.747493 0 0 1-30.295079-163.593422 439.278634 439.278634 0 0 1 27.265571-163.593422 260.537673 260.537673 0 0 1 75.737695-109.062282 281.744227 281.744227 0 0 1 99.973758-63.619664 360.511431 360.511431 0 0 1 112.09179-18.177047h66.649172a387.777001 387.777001 0 0 1 81.796711 15.147539z m-109.062282 360.511431a133.298344 133.298344 0 0 0-87.855727 36.354094 130.268836 130.268836 0 0 0-42.413109 109.062281 169.652438 169.652438 0 0 0 42.413109 124.209821 121.180313 121.180313 0 0 0 87.855727 45.442617h57.560649a66.649172 66.649172 0 0 0 45.442617-24.236062 72.708188 72.708188 0 0 0 30.295078-45.442618 209.03604 209.03604 0 0 0 12.118032-84.826219 142.386868 142.386868 0 0 0-45.442618-118.150805 160.563914 160.563914 0 0 0-99.973758-42.413109zM2787.539526 639.250386a196.918008 196.918008 0 0 0 24.236063 112.09179 99.973758 99.973758 0 0 0 87.855726 54.53114 163.593422 163.593422 0 0 0 84.826219-9.088523 275.685212 275.685212 0 0 0 48.472126-33.324586 109.062282 109.062282 0 0 1 36.354093-24.236063 133.298344 133.298344 0 0 1 69.67868-15.147539 103.003266 103.003266 0 0 1 84.826219 39.383602 93.914742 93.914742 0 0 1 6.059016 90.885234A139.35736 139.35736 0 0 1 3181.375543 939.17166a327.186845 327.186845 0 0 1-90.885235 48.472126 587.724517 587.724517 0 0 1-99.973758 21.206554 375.65897 375.65897 0 0 1-99.973758 3.029508 493.809775 493.809775 0 0 1-139.35736-30.295078 315.068813 315.068813 0 0 1-112.091789-78.767203 278.714719 278.714719 0 0 1-78.767203-115.121298 475.632728 475.632728 0 0 1-18.177047-166.62293 402.92454 402.92454 0 0 1 45.442617-160.563914 281.744227 281.744227 0 0 1 93.914742-103.003266 348.393399 348.393399 0 0 1 124.209821-51.501633 521.075345 521.075345 0 0 1 139.35736-9.088524 651.344181 651.344181 0 0 1 103.003266 15.14754 354.452415 354.452415 0 0 1 99.973758 33.324586 266.596688 266.596688 0 0 1 75.737695 66.649172 142.386868 142.386868 0 0 1 33.324586 93.914742 93.914742 93.914742 0 0 1-18.177047 81.796711 109.062282 109.062282 0 0 1-90.885234 27.265571 139.35736 139.35736 0 0 1-72.708188-21.206555 96.94425 96.94425 0 0 1-33.324586-36.354094 160.563914 160.563914 0 0 0-42.413109-36.354094 142.386868 142.386868 0 0 0-75.737696-21.206555 121.180313 121.180313 0 0 0-93.914742 33.324586 175.711454 175.711454 0 0 0-42.41311 106.032774z" fill="#646262" p-id="17992"></path><path d="M2920.83787 648.33891m-75.737695 0a75.737696 75.737696 0 1 0 151.475391 0 75.737696 75.737696 0 1 0-151.475391 0Z" fill="#74AB63" p-id="17993"></path></svg>