<?xml version="1.0" standalone="no"?><!DOCTYPE svg PUBLIC "-//W3C//DTD SVG 1.1//EN" "http://www.w3.org/Graphics/SVG/1.1/DTD/svg11.dtd"><svg t="1757144566734" class="icon" viewBox="0 0 1024 1024" version="1.1" xmlns="http://www.w3.org/2000/svg" p-id="3433" xmlns:xlink="http://www.w3.org/1999/xlink" width="200" height="200"><path d="M85.333333 0h853.333334c46.933333 0 85.333333 38.4 85.333333 85.333333v853.333334c0 46.933333-38.4 85.333333-85.333333 85.333333H85.333333c-46.933333 0-85.333333-38.4-85.333333-85.333333V85.333333c0-46.933333 38.4-85.333333 85.333333-85.333333z" fill="#F4F4F4" p-id="3434"></path><path d="M699.733333 714.666667v93.866666c-2.133333 27.733333-10.666667 53.333333-27.733333 74.666667s-40.533333 36.266667-68.266667 38.4c-36.266667 2.133333-55.466667-38.4-64-59.733333-6.4-19.2-10.666667-38.4-10.666666-59.733334v-130.133333c-2.133333-17.066667-12.8-34.133333-27.733334-42.666667l-2.133333-2.133333-2.133333-2.133333c-6.4-2.133333-14.933333-6.4-21.333334-6.4 2.133333-4.266667 4.266667-10.666667 6.4-14.933334 2.133333-6.4 4.266667-12.8 6.4-17.066666l2.133334-8.533334c12.8-32 19.2-68.266667 19.2-102.4 0-25.6-4.266667-53.333333-8.533334-78.933333-6.4-38.4-42.666667-66.133333-81.066666-64-19.2 0-36.266667 4.266667-53.333334 10.666667 12.8-61.866667 49.066667-166.4 164.266667-164.266667 93.866667 2.133333 174.933333 64 204.8 151.466667-32 0-59.733333 14.933333-76.8 40.533333-32 53.333333 14.933333 138.666667 36.266667 177.066667 2.133333 4.266667 6.4 10.666667 8.533333 14.933333l2.133333 2.133333c6.4 10.666667 14.933333 21.333333 23.466667 32l6.4 8.533334c-14.933333 10.666667-29.866667 29.866667-32 81.066666v17.066667c-4.266667 4.266667-4.266667 6.4-4.266667 10.666667zM362.666667 618.666667c4.266667 6.4 10.666667 10.666667 17.066666 17.066666-12.8 14.933333-32 36.266667-51.2 57.6-8.533333 12.8-21.333333 19.2-36.266666 21.333334-78.933333 2.133333-136.533333-307.2-140.8-358.4-6.4-138.666667 61.866667-187.733333 132.266666-189.866667 42.666667 0 83.2 8.533333 123.733334 25.6-53.333333 53.333333-83.2 125.866667-85.333334 200.533333v14.933334c4.266667 32 2.133333 64 0 96-4.266667 42.666667 10.666667 85.333333 40.533334 115.2z m413.866666-268.8c-19.2-76.8-70.4-142.933333-140.8-179.2 14.933333-4.266667 32-4.266667 46.933334-6.4 68.266667-2.133333 134.4 27.733333 177.066666 83.2 34.133333 42.666667-2.133333 211.2-89.6 352-2.133333-6.4-6.4-10.666667-10.666666-14.933334 17.066667-32 23.466667-68.266667 14.933333-102.4-2.133333-12.8-2.133333-23.466667-2.133333-36.266666 0-12.8 2.133333-25.6 2.133333-36.266667 2.133333-17.066667 4.266667-34.133333 2.133333-51.2v-8.533333zM851.2 640c40.533333-8.533333 17.066667 21.333333-23.466667 40.533333-23.466667 10.666667-51.2 14.933333-76.8 14.933334H738.133333c2.133333-42.666667 14.933333-49.066667 21.333334-53.333334l6.4-4.266666c25.6 12.8 57.6 12.8 85.333333 2.133333z m-358.4 40.533333v14.933334c-32 19.2-68.266667 23.466667-102.4 14.933333-21.333333-2.133333-55.466667-19.2 2.133333-34.133333 19.2-2.133333 36.266667-8.533333 53.333334-19.2h10.666666c8.533333 0 19.2 2.133333 27.733334 6.4h2.133333c2.133333 4.266667 6.4 10.666667 6.4 17.066666z m-25.6-258.133333c4.266667 19.2 6.4 38.4 6.4 57.6 0 29.866667-6.4 59.733333-17.066667 89.6l-4.266666 6.4c-2.133333 6.4-4.266667 10.666667-6.4 17.066667-4.266667 8.533333-6.4 17.066667-10.666667 27.733333-19.2-4.266667-34.133333-12.8-46.933333-27.733333-21.333333-21.333333-32-53.333333-29.866667-83.2 4.266667-34.133333 4.266667-70.4 0-104.533334v-8.533333c19.2-14.933333 42.666667-23.466667 68.266667-21.333333 14.933333 0 27.733333 8.533333 34.133333 23.466666-4.266667-2.133333-10.666667-4.266667-14.933333-4.266666-14.933333-2.133333-29.866667 0-29.866667 8.533333 2.133333 14.933333 12.8 25.6 27.733333 27.733333 8.533333 2.133333 17.066667-2.133333 23.466667-8.533333z m266.666667 66.133333c4.266667 21.333333 4.266667 42.666667 0 61.866667l-6.4-12.8c-21.333333-34.133333-36.266667-72.533333-42.666667-110.933333 4.266667 4.266667 10.666667 6.4 17.066667 6.4h2.133333c6.4-2.133333 12.8-4.266667 19.2-8.533334 4.266667-4.266667 8.533333-8.533333 6.4-14.933333-2.133333-8.533333-12.8-14.933333-29.866667-12.8-4.266667 0-6.4 2.133333-10.666666 2.133333 12.8-14.933333 29.866667-21.333333 46.933333-21.333333 0 10.666667-2.133333 17.066667-2.133333 29.866667-2.133333 12.8-2.133333 25.6-4.266667 40.533333 2.133333 10.666667 2.133333 25.6 4.266667 40.533333z" fill="#5182E4" p-id="3435"></path></svg>