<?xml version="1.0" standalone="no"?><!DOCTYPE svg PUBLIC "-//W3C//DTD SVG 1.1//EN" "http://www.w3.org/Graphics/SVG/1.1/DTD/svg11.dtd"><svg t="1757147853784" class="icon" viewBox="0 0 1024 1024" version="1.1" xmlns="http://www.w3.org/2000/svg" p-id="24532" xmlns:xlink="http://www.w3.org/1999/xlink" width="200" height="200"><path d="M750.2 218.3h-64.8v-13.8c0-23.7-19.2-42.9-42.9-42.9H379.7c-23.7 0-42.9 19.2-42.9 42.9v13.8H272c-33.7 0-61.1 25-61.1 55.9v531.6c0 30.8 27.4 55.9 61.1 55.9h478.2c33.7 0 61.1-25 61.1-55.9V274.1c0-30.8-27.4-55.8-61.1-55.8z m-370.5-13.9h262.8l-0.1 70.5H379.7v-70.5z m388.8 601.3c0 6.9-8.5 13-18.2 13H272.1c-9.7 0-18.2-6.1-18.2-13V274.1c0-6.9 8.5-13 18.2-13h64.8V275c0 23.7 19.2 42.9 42.9 42.9h262.8c23.7 0 42.9-19.2 42.9-42.9v-13.8h64.8c9.7 0 18.2 6.1 18.2 13v531.5z" p-id="24533"></path><path d="M648.6 406L471.3 589.8l-73.9-80.3c-8-8.7-21.6-9.2-30.3-1.2-8.7 8-9.3 21.6-1.2 30.3l89.3 97c4 4.3 9.6 6.8 15.5 6.9h0.3c5.8 0 11.4-2.4 15.4-6.5l193-200.1c8.2-8.5 8-22.1-0.5-30.3-8.6-8.3-22.1-8.1-30.3 0.4z" p-id="24534"></path></svg>