<?xml version="1.0" standalone="no"?><!DOCTYPE svg PUBLIC "-//W3C//DTD SVG 1.1//EN" "http://www.w3.org/Graphics/SVG/1.1/DTD/svg11.dtd"><svg t="1757147675414" class="icon" viewBox="0 0 1024 1024" version="1.1" xmlns="http://www.w3.org/2000/svg" p-id="15688" xmlns:xlink="http://www.w3.org/1999/xlink" width="200" height="200"><path d="M513.2288 509.5936m-450.816 0a450.816 450.816 0 1 0 901.632 0 450.816 450.816 0 1 0-901.632 0Z" fill="#59ADF8" p-id="15689"></path><path d="M433.7664 337.0496h161.1264c19.3024 0 35.0208-15.7184 35.0208-35.0208V240.7424c0-9.3696-3.6352-18.176-10.2912-24.7808-6.6048-6.6048-15.4112-10.24-24.7296-10.24h-4.9664-0.0512c-3.1744 0-6.1952-1.3312-8.2944-3.6864l-13.4144-14.8992a45.31712 45.31712 0 0 0-33.536-14.9504h-37.0688c-12.4928 0-24.576 5.2736-33.0752 14.4384l-14.3872 15.5136c-2.0992 2.2528-5.0688 3.584-8.1408 3.584h-8.192c-9.3184 0-18.1248 3.6352-24.7296 10.24a34.65216 34.65216 0 0 0-10.2912 24.7808v61.2864c0 19.3024 15.7184 35.0208 35.0208 35.0208z" fill="#FFFFFF" p-id="15690"></path><path d="M700.6208 265.472h-29.0304v44.1856c0 36.096-29.2352 65.3312-65.3312 65.3312H422.4c-36.096 0-65.3312-29.2352-65.3312-65.3312v-44.1856h-29.0304c-38.8608 0-70.4512 31.5904-70.4512 70.4512v391.68c0 38.8608 31.5904 70.4512 70.4512 70.4512h372.5824c38.8608 0 70.4512-31.5904 70.4512-70.4512v-391.68c0-38.8096-31.5904-70.4512-70.4512-70.4512z m-319.232 179.712h145.3568c13.9776 0 25.2928 11.3152 25.2928 25.2928 0 13.9776-11.3152 25.2928-25.2928 25.2928H381.3888c-13.9776 0-25.2928-11.3152-25.2928-25.2928 0-13.9776 11.3152-25.2928 25.2928-25.2928z m258.0992 253.2352H381.3888c-13.9776 0-25.2928-11.3152-25.2928-25.2928 0-13.9776 11.3152-25.2928 25.2928-25.2928h258.0992c13.9776 0 25.2928 11.3152 25.2928 25.2928 0 13.9264-11.3152 25.2928-25.2928 25.2928z m0-95.744H381.3888c-13.9776 0-25.2928-11.3152-25.2928-25.2928 0-13.9776 11.3152-25.2928 25.2928-25.2928h258.0992c13.9776 0 25.2928 11.3152 25.2928 25.2928 0 13.9776-11.3152 25.2928-25.2928 25.2928z" fill="#FFFFFF" p-id="15691"></path><path d="M671.5904 265.472v34.7648c2.7136-11.4176 4.9664-23.04 6.7584-34.7648h-6.7584z" fill="#55B5F3" p-id="15692"></path></svg>