<?xml version="1.0" standalone="no"?><!DOCTYPE svg PUBLIC "-//W3C//DTD SVG 1.1//EN" "http://www.w3.org/Graphics/SVG/1.1/DTD/svg11.dtd"><svg t="1757147182800" class="icon" viewBox="0 0 1024 1024" version="1.1" xmlns="http://www.w3.org/2000/svg" p-id="10787" xmlns:xlink="http://www.w3.org/1999/xlink" width="200" height="200"><path d="M896 715.904c-1.408 24.768-12.928 35.712-38.592 35.712-27.456 0-39.808-10.88-41.216-36.48l0.064-167.296H568.256v168.064c-1.472 24.768-12.992 35.712-38.592 35.712-25.6 0-37.056-10.88-38.4-36.48V313.728c1.344-27.2 13.056-39.744 39.232-41.344 24.512 1.6 36.224 14.144 37.76 42.112v161.856h248V313.728c1.408-27.2 13.952-39.744 41.92-41.216 24.576 1.472 36.352 14.016 37.824 41.984v401.408z m-611.264 38.464c-102.528-1.792-155.264-22.336-156.736-61.12 1.344-22.848 11.584-33.792 33.856-35.2 4.416 0.064 16.512 1.856 44.672 10.496 30.336 11.392 54.464 17.024 72.832 17.024 67.904-2.624 83.904-41.536 85.504-73.728 0-30.016-31.104-53.504-97.856-74.368-91.776-26.048-136.256-65.792-136.256-121.792 6.656-90.944 59.264-139.072 160.64-146.048 78.016 5.056 120.064 24 123.008 56.448-1.92 30.912-18.24 36.288-33.856 37.184-3.2-0.064-12.608-1.28-33.856-7.68-22.72-7.616-42.816-11.584-59.008-11.584-56.448 2.88-70.016 32.576-71.552 57.024-0.064 37.568 51.264 55.936 89.92 66.496 98.688 29.44 146.816 76.416 146.816 143.68-6.72 90.688-61.824 137.984-168.128 143.168zM896 0H128a128 128 0 0 0-128 128v768a128 128 0 0 0 128 128h768a128 128 0 0 0 128-128V128a128 128 0 0 0-128-128z" fill="#456fff" p-id="10788"></path></svg>