<?xml version="1.0" standalone="no"?><!DOCTYPE svg PUBLIC "-//W3C//DTD SVG 1.1//EN" "http://www.w3.org/Graphics/SVG/1.1/DTD/svg11.dtd"><svg t="1757146059256" class="icon" viewBox="0 0 1024 1024" version="1.1" xmlns="http://www.w3.org/2000/svg" p-id="4523" xmlns:xlink="http://www.w3.org/1999/xlink" width="200" height="200"><path d="M511.931733 0.8192A511.726933 511.726933 0 0 0 0.682667 512a511.726933 511.726933 0 0 0 511.317333 511.044267A511.726933 511.726933 0 0 0 1022.976 512 511.726933 511.726933 0 0 0 512 0.8192z" fill="#2F7CFE" p-id="4524"></path><path d="M709.8368 637.201067L533.230933 535.074133V256.341333a42.666667 42.666667 0 0 0-85.1968 0v298.257067c0 15.7696 19.592533 29.013333 32.3584 36.317867 3.549867 5.3248 13.243733 10.171733 19.114667 13.5168l175.7184 106.496c20.48 11.741867 42.461867 4.778667 54.203733-15.5648 11.741867-20.343467 0.8192-46.421333-19.592533-58.1632z" fill="#FFFFFF" p-id="4525"></path></svg>