<?xml version="1.0" standalone="no"?><!DOCTYPE svg PUBLIC "-//W3C//DTD SVG 1.1//EN" "http://www.w3.org/Graphics/SVG/1.1/DTD/svg11.dtd"><svg t="1757148542169" class="icon" viewBox="0 0 1024 1024" version="1.1" xmlns="http://www.w3.org/2000/svg" p-id="25530" xmlns:xlink="http://www.w3.org/1999/xlink" width="200" height="200"><path d="M779.5 839.8c-71.1 44.1-157.5 56.9-240.3 35.7l-45.3-11.7-278.6-71.6c-50.5-13-82.6-64.8-71.8-115.8 10.8-51 60.5-81.8 110.9-68.8l95.8 24.6-101.8-164-116.7-188.1c-28.1-45.2-15.7-103.7 27.6-130.6 43.3-26.9 101.2-12 129.3 33.2l110.7 178.5c3.3 5.3 10.1 7.1 15.2 3.9L646 221.5c48.2-30 112.7-13.4 143.9 37l84 135.3c95.9 154.5 53.6 354.2-94.4 446" p-id="25531"></path></svg>