<?xml version="1.0" standalone="no"?><!DOCTYPE svg PUBLIC "-//W3C//DTD SVG 1.1//EN" "http://www.w3.org/Graphics/SVG/1.1/DTD/svg11.dtd"><svg t="1757241061860" class="icon" viewBox="0 0 1024 1024" version="1.1" xmlns="http://www.w3.org/2000/svg" p-id="5890" xmlns:xlink="http://www.w3.org/1999/xlink" width="200" height="200"><path d="M285.568 512a448 226.432 90 1 0 452.864 0 448 226.432 90 1 0-452.864 0Z" fill="#E3FFFA" p-id="5891"></path><path d="M512 128c154.592 0 287.808 92.032 348.64 224h69.44C865.6 183.712 702.976 64 512 64S158.4 183.712 93.952 352h69.44C224.192 220.032 357.408 128 512 128zM512 896c-154.592 0-287.808-92.032-348.64-224h-69.44C158.4 840.32 321.024 960 512 960s353.6-119.68 418.048-288h-69.44c-60.8 131.968-194.016 224-348.608 224z" fill="#1DDDCB" p-id="5892"></path><path d="M512 128c51.008 0 117.088 82.336 146.88 224h64.64C690.912 183.712 608.64 64 512 64c-96.64 0-178.912 119.712-211.52 288h64.64c29.792-141.664 95.872-224 146.88-224zM512 896c-51.008 0-117.088-82.304-146.88-224H300.48c32.608 168.32 114.912 288 211.52 288 96.64 0 178.912-119.68 211.488-288h-64.64c-29.76 141.696-95.84 224-146.848 224z" fill="#1DDDCB" p-id="5893"></path><path d="M64 434.88h57.152l24.736 97.12 31.296-97.12h53.408l32.64 97.344 24.864-97.344h56.8l-56.8 154.24H235.456l-31.232-92.8-30.208 92.8h-52.8L64 434.88zM371.552 434.88h57.152l24.736 97.12 31.296-97.12h53.376l32.672 97.344 24.864-97.344h56.768l-56.8 154.24h-52.64l-31.232-92.8-30.208 92.8h-52.832l-57.152-154.24zM679.136 434.88h57.12l24.672 97.12 31.328-97.12h53.408l32.672 97.344 24.864-97.344H960l-56.8 154.24H850.56l-31.264-92.8-30.176 92.8h-52.832l-57.152-154.24z" fill="#1DDDCB" p-id="5894"></path></svg>