<?xml version="1.0" standalone="no"?><!DOCTYPE svg PUBLIC "-//W3C//DTD SVG 1.1//EN" "http://www.w3.org/Graphics/SVG/1.1/DTD/svg11.dtd"><svg t="1757148711597" class="icon" viewBox="0 0 1024 1024" version="1.1" xmlns="http://www.w3.org/2000/svg" p-id="40190" xmlns:xlink="http://www.w3.org/1999/xlink" width="200" height="200"><path d="M195.469571 395.661472a339.454868 339.454868 0 0 0-25.599915 127.999574c0 37.205209 6.99731 74.467307 18.659493 107.007643 20.935041-34.872773 48.867393-74.467307 83.740166-116.33739-4.607985-9.329747-9.272858-20.935041-9.272858-32.597225 0-9.272858 2.275548-16.270168 4.664873-23.267478-32.597225-23.267478-55.864703-44.202519-72.191759-62.805124z m121.059152 407.266198c11.605295-9.329747 20.935041-18.659493 32.540336-25.599914 95.459237-72.191759 181.531839-114.061842 249.058725-137.32932 0-4.664873-2.332437-9.329747-2.332437-13.937732v-6.99731c-23.324367-6.99731-48.924281-13.99462-72.13487-23.324366-60.529576-20.878153-111.729405-46.478067-155.931925-69.802434-11.662183 11.662183-27.932351 18.659493-44.259408 18.659493-9.272858 0-16.270168-2.332437-23.267478-4.664873-44.202519 51.199829-74.467307 100.067222-95.402349 137.32932 27.875463 51.199829 65.137561 93.069912 111.729406 125.667136zM537.598208 560.866255c25.599915 9.329747 51.199829 16.270168 76.799744 23.324367a54.954483 54.954483 0 0 1 20.935041-13.99462c-6.99731-25.599915-16.270168-51.199829-27.875462-76.799744a840.246088 840.246088 0 0 0-53.589155-102.399659c-6.940421 2.275548-11.605295 2.275548-18.602605 2.275548a63.146456 63.146456 0 0 1-39.537646-13.937731c-25.599915 16.327057-51.199829 32.597225-79.13218 53.532266l-34.929662 27.932351c2.332437 6.99731 4.664873 16.270168 4.664874 23.324367v9.272858c41.870083 20.935041 93.069912 46.534956 151.267051 67.469997z m325.801581-37.205209c0-97.791674-41.870083-188.529149-111.672517-249.058726-34.929661 6.99731-88.461927 20.935041-153.599488 48.924282v6.940421c0 13.99462-4.664873 25.599915-11.662183 37.262098 20.935041 32.540336 39.594535 69.802434 58.197139 111.672517 11.605295 30.264788 23.267478 60.529576 32.597225 88.461927 18.602605 4.664873 34.872773 18.602605 44.202519 37.205209 13.937731 2.332437 27.875463 2.332437 41.870083 2.332437 34.929661 2.332437 67.526886 0 93.1268 0 2.275548-30.264788 6.940421-55.864703 6.940422-83.740165z m-346.736622-253.723599a51.199829 51.199829 0 0 1 18.602604-2.275548c18.602605 0 34.929661 6.940421 46.534956 20.935041 51.199829-23.324367 95.459237-37.262098 130.33201-46.534956A353.108156 353.108156 0 0 0 516.663167 181.47552c-25.599915 0-53.532266 2.275548-76.799744 9.329746 20.935041 20.935041 48.867393 46.534956 76.799744 79.075292z m158.264361 556.257701c2.275548-34.929661 0-81.464617-11.662183-139.661756h-4.664874c-16.270168 0-30.264788-4.664873-39.537646-13.937732a878.19085 878.19085 0 0 0-244.393852 134.939995c-6.940421 4.664873-13.937731 11.662183-23.267478 16.327057 48.924281 25.599915 104.732095 39.537646 162.929235 39.537646a309.019414 309.019414 0 0 0 160.596798-37.20521zM214.129064 358.399374c16.270168 18.602605 41.870083 44.202519 79.075292 72.134871 9.329747-4.664873 20.99193-9.272858 32.597225-9.272858 11.662183 0 23.324367 2.275548 32.597224 9.272858l34.929662-27.875463c27.875463-20.99193 55.807814-39.594535 81.407728-55.921591-2.275548-4.607985-2.275548-9.272858-2.275548-16.270168 0-13.937731 4.607985-25.599915 11.605295-37.205209-34.929661-39.594535-65.137561-69.859323-90.737475-88.461928-76.799744 27.875463-139.661757 83.797054-179.199403 153.599488z m539.873756 286.263935c-6.940421 0-18.602605 0-34.872773 4.664873a83.626388 83.626388 0 0 1-16.270168 23.267478c9.272858 51.199829 13.937731 95.402349 13.937732 130.275122 55.864703-39.537646 100.124111-93.069912 125.724025-158.207473h-88.461927zM674.984417 48.867962A70.541987 70.541987 0 0 0 607.400642 0.000569C570.195433 0.000569 537.598208 30.265357 537.598208 67.470566c0 37.262098 30.264788 67.526886 69.802434 67.526886 18.659493 0 37.262098-6.99731 48.924281-20.935041 174.534529 60.472687 297.869229 221.069485 297.86923 409.598635 0 46.534956-6.99731 90.737475-20.935042 132.607558l60.472688 34.929661c18.602605-51.199829 30.264788-109.396969 30.264788-167.537219 0-221.126374-146.602178-409.598635-349.069059-474.793084z m197.802007 712.132737c-37.262098 0-69.802434 30.264788-69.802434 67.526886 0 6.940421 2.275548 11.605295 2.275548 18.602605a440.659864 440.659864 0 0 1-290.871919 109.396968c-127.999573 0-244.393852-55.864703-325.801581-141.994193l-62.862013 34.929661A511.941405 511.941405 0 0 0 511.998293 1023.997156c130.275121 0 251.334273-48.924281 339.796201-130.275122 4.664873 2.275548 9.272858 2.275548 16.270168 2.275548 37.262098 0 69.802434-30.264788 69.802434-67.469997 0-37.262098-27.875463-67.526886-65.137561-67.526886z m-786.600045-153.599488c-4.664873-27.875463-9.329747-53.475377-9.329746-83.740165 0-207.131754 148.934615-379.390735 346.736622-421.260818V32.597794C186.196713 74.467876 6.99731 279.267194 6.99731 523.661046c0 34.872773 4.664873 69.802434 11.605295 102.399658-11.605295 11.605295-18.602605 27.875463-18.602605 46.534956 0 37.205209 30.264788 67.469997 69.802434 67.469998 37.262098 0 69.859323-30.264788 69.859323-67.469998 0-32.597225-23.324367-58.197139-53.532266-65.194449z" fill="#00CCFF" p-id="40191"></path></svg>