<?xml version="1.0" standalone="no"?><!DOCTYPE svg PUBLIC "-//W3C//DTD SVG 1.1//EN" "http://www.w3.org/Graphics/SVG/1.1/DTD/svg11.dtd"><svg t="1757153102384" class="icon" viewBox="0 0 1024 1024" version="1.1" xmlns="http://www.w3.org/2000/svg" p-id="52040" xmlns:xlink="http://www.w3.org/1999/xlink" width="200" height="200"><path d="M960 217.6h-128v-64c0-38.4-25.6-64-64-64H64c-38.4 0-64 32-64 64v524.8c0 38.4 25.6 64 64 64h288l-64 134.4h256l-64-134.4H704v134.4c0 38.4 25.6 64 64 64h192c38.4 0 64-32 64-64V281.6c0-38.4-25.6-64-64-64zM64 608V147.2h704v64c-38.4 0-64 32-64 64v332.8H64z m800 268.8c-19.2 0-32-12.8-32-32s12.8-32 32-32 32 12.8 32 32c0 12.8-12.8 32-32 32z m0-134.4c-19.2 0-32-12.8-32-32s12.8-32 32-32 32 12.8 32 32-12.8 32-32 32zM960 480h-192v-64h192v64z m0-134.4h-192v-64h192v64z" fill="#2074EF" p-id="52041"></path><path d="M416 204.8c-76.8 0-140.8 64-140.8 140.8s140.8 211.2 140.8 211.2 140.8-134.4 140.8-211.2-64-140.8-140.8-140.8z m0 211.2c-38.4 0-70.4-32-70.4-70.4s32-70.4 70.4-70.4 70.4 32 70.4 70.4-32 70.4-70.4 70.4z" fill="#2074EF" p-id="52042"></path><path d="M800 800m-224 0a224 224 0 1 0 448 0 224 224 0 1 0-448 0Z" fill="#ED1414" p-id="52043"></path><path d="M665.6 908.8l243.2-243.2 32 32-243.2 243.2-32-32z" fill="#FFFFFF" p-id="52044"></path><path d="M697.6 659.2l243.2 243.2-32 32-243.2-243.2 32-32z" fill="#FFFFFF" p-id="52045"></path></svg>