<?xml version="1.0" standalone="no"?><!DOCTYPE svg PUBLIC "-//W3C//DTD SVG 1.1//EN" "http://www.w3.org/Graphics/SVG/1.1/DTD/svg11.dtd"><svg t="1757153035676" class="icon" viewBox="0 0 1162 1024" version="1.1" xmlns="http://www.w3.org/2000/svg" p-id="50771" xmlns:xlink="http://www.w3.org/1999/xlink" width="226.953125" height="200"><path d="M847.930707 306.860238L543.342526 611.448419a41.510968 41.510968 0 0 1-15.929979 10.87192l-9.476594 1.68602a28.284434 28.284434 0 0 1-9.011485-1.68602 43.603958 43.603958 0 0 1-16.046256-10.87192l-179.125059-179.299475a31.220434 31.220434 0 0 1 0-49.999205 31.336711 31.336711 0 0 1 50.173621 0l154.067318 154.067318 279.646717-279.646717a31.39485 31.39485 0 0 1 50.173621 0v0.174416a31.220434 31.220434 0 0 1 0.116277 50.115482z" fill="#3A84FF" p-id="50772"></path><path d="M847.930707 306.860238L543.342526 611.448419a41.510968 41.510968 0 0 1-15.929979 10.87192l-9.476594 1.68602a28.284434 28.284434 0 0 1-9.011485-1.68602 43.603958 43.603958 0 0 1-16.046256-10.87192l-179.125059-179.299475a31.220434 31.220434 0 0 1 0-49.999205 31.336711 31.336711 0 0 1 50.173621 0l154.067318 154.067318 279.646717-279.646717a31.39485 31.39485 0 0 1 50.173621 0v0.174416a31.220434 31.220434 0 0 1 0.116277 50.115482z" fill="#3A84FF" p-id="50773"></path><path d="M1060.107566 0.004651H108.901758a109.155241 109.155241 0 0 0-108.719202 106.161103 14.534653 14.534653 0 0 0-0.174416 2.732515v653.536122a14.040474 14.040474 0 0 0 0.174416 2.732515 108.893618 108.893618 0 0 0 108.719202 106.161103h326.79713v72.673263h-140.17219a39.999364 39.999364 0 0 0 0 79.998728h570.804879a39.999364 39.999364 0 0 0 0-79.998728h-140.288467v-72.673263h326.738992a109.155241 109.155241 0 0 0 108.951756-108.893618V108.898269A100.957697 100.957697 0 0 0 1060.107566 0.004651z m36.278494 762.42974a34.185503 34.185503 0 0 1-36.278494 36.278493H108.901758A34.185503 34.185503 0 0 1 72.681404 762.434391V108.898269A34.156434 34.156434 0 0 1 108.901758 72.677914h951.205808a34.185503 34.185503 0 0 1 36.278494 36.220355z" fill="#3A84FF" p-id="50774"></path></svg>