<?xml version="1.0" standalone="no"?><!DOCTYPE svg PUBLIC "-//W3C//DTD SVG 1.1//EN" "http://www.w3.org/Graphics/SVG/1.1/DTD/svg11.dtd"><svg t="1757839196279" class="icon" viewBox="0 0 1024 1024" version="1.1" xmlns="http://www.w3.org/2000/svg" p-id="38102" xmlns:xlink="http://www.w3.org/1999/xlink" width="200" height="200"><path d="M511.974273 512.025215m-486.3741 0a486.374101 486.374101 0 1 0 972.748201 0 486.374101 486.374101 0 1 0-972.748201 0Z" fill="#FFFFFF" p-id="38103"></path><path d="M149.958351 874.041137A511.972737 511.972737 0 1 1 511.974273 1023.997952a508.644915 508.644915 0 0 1-362.015922-149.956815zM51.19881 512.025215a460.775464 460.775464 0 1 0 460.775463-460.775464 461.313035 461.313035 0 0 0-460.775463 460.775464z m277.207638 230.054949a246.847655 246.847655 0 0 1-15.359182-340.46187 1088.966013 1088.966013 0 0 1 180.675179-181.366342l18.328624-15.359183 18.328624 15.359183a1088.63323 1088.63323 0 0 1 180.675179 181.366342 246.898853 246.898853 0 0 1-15.359182 340.46187 257.061511 257.061511 0 0 1-367.186847 0z m159.735495-105.363989a33.278228 33.278228 0 0 0-8.601142 24.139514 36.631649 36.631649 0 0 0 10.725828 25.982617 31.511922 31.511922 0 0 0 23.576345 8.83153h0.230388a30.155194 30.155194 0 0 0 21.298066-8.83153 37.37401 37.37401 0 0 0 8.575543-26.033814 33.278228 33.278228 0 0 0-8.575543-24.139514 30.846357 30.846357 0 0 0-47.255084 0z m22.398807-268.5553a28.516881 28.516881 0 0 0-22.398807 10.956217 46.077546 46.077546 0 0 0-8.242762 28.158501 56.675382 56.675382 0 0 0 0.511973 10.70023c0.307184 2.25268 0.793558 6.041278 1.587116 13.311291l5.836489 109.152588a78.511019 78.511019 0 0 0 6.425258 30.487976 16.280733 16.280733 0 0 0 15.051998 10.930618 16.971896 16.971896 0 0 0 17.151087-10.930618 69.423503 69.423503 0 0 0 6.425258-30.487976l8.601142-111.354071c0.588769-3.993387 2.201483-18.763801 2.201483-21.042079a41.87937 41.87937 0 0 0-6.476456-26.929766 27.083358 27.083358 0 0 0-24.190711-13.260094c-0.819156 0.204789-1.663911 0.230388-2.508667 0.307183z" fill="#F5222D" p-id="38104"></path></svg>