<?xml version="1.0" standalone="no"?><!DOCTYPE svg PUBLIC "-//W3C//DTD SVG 1.1//EN" "http://www.w3.org/Graphics/SVG/1.1/DTD/svg11.dtd"><svg t="1757078093917" class="icon" viewBox="0 0 1068 1024" version="1.1" xmlns="http://www.w3.org/2000/svg" p-id="4926" xmlns:xlink="http://www.w3.org/1999/xlink" width="208.59375" height="200"><path d="M1037.561902 978.180814c0 8.555802-11.039745 15.583024-17.943831 15.583024l-966.555114 0.951116c-6.89984 0-16.971484-7.269247-16.971484-15.829295v-227.631041c0-8.555802 10.067398-15.485365 16.971484-15.485365H1020.581925c6.89984 0 16.971484 6.942301 16.971484 15.485365l0.008493 226.926196z" fill="#9797AD" p-id="4927"></path><path d="M548.382327 863.371716m-40.333282 0a40.333282 40.333282 0 1 0 80.666565 0 40.333282 40.333282 0 1 0-80.666565 0Z" fill="#94D6CA" p-id="4928"></path><path d="M548.382327 920.689221c-31.603392 0-57.317505-25.714113-57.317504-57.321751 0-31.599146 25.714113-57.313259 57.317504-57.313258s57.317505 25.714113 57.317505 57.313258c0 31.611884-25.714113 57.321751-57.317505 57.321751z m0-80.666564a23.374536 23.374536 0 0 0-23.349059 23.344813c0 12.874041 10.475019 23.353306 23.349059 23.353306s23.34906-10.479265 23.34906-23.353306a23.374536 23.374536 0 0 0-23.34906-23.344813zM880.470582 808.584861h33.968445v109.594941h-33.968445zM799.799772 808.584861h33.968445v109.594941h-33.968445zM719.128961 808.584861h33.968445v109.594941h-33.968445zM328.483354 808.584861h33.968445v109.594941h-33.968445zM242.589895 808.584861h33.968445v109.594941h-33.968445zM156.696436 808.584861h33.968445v109.594941h-33.968445z" fill="#6E6E96" p-id="4929"></path><path d="M732.389393 596.03581c118.350308 0 214.281442-92.810283 214.281442-207.322158 0-94.563904-65.461439-174.287844-154.930077-199.182468C744.333548 100.31731 649.077536 39.360935 539.202355 39.360935c-137.020214 0-251.387722 94.771961-278.43085 220.956242-78.35671 19.693206-136.030883 86.042071-136.030883 164.870093 0 94.347356 82.560305 170.835801 184.410441 170.835801h423.242576v0.012739z" fill="#AAE3FC" p-id="4930"></path><path d="M303.261783 252.088321s40.76638-163.08675 224.051617-163.086749 230.055539 102.584703 230.055538 102.584703l34.367574-2.055091S708.611482 39.360935 539.198109 39.360935c-169.400634 0-268.17238 176.432103-278.43085 220.956242l42.494524-8.228856z" fill="#FCFCFC" opacity=".25" p-id="4931"></path><path d="M791.732266 189.531184s-92.602227-10.262716-92.602226 72.811362" fill="#AAE3FC" p-id="4932"></path><path d="M699.134286 279.326768a16.984222 16.984222 0 0 1-16.984223-16.984222c0-27.91357 8.963423-50.090718 26.639753-65.915768 32.601215-29.187386 82.704671-24.007198 84.814961-23.777911a16.984222 16.984222 0 0 1 15.009806 18.750582 16.941762 16.941762 0 0 1-18.699629 15.018298c-0.360915-0.042461-37.403504-3.6601-58.570091 15.408936-10.245732 9.230925-15.226355 22.482864-15.226355 40.515863a16.984222 16.984222 0 0 1-16.984222 16.984222z" fill="#6E6E96" p-id="4933"></path><path d="M260.763013 260.321423s46.710858-16.691245 77.333411 14.912147" fill="#AAE3FC" p-id="4934"></path><path d="M338.10067 292.217793a16.941762 16.941762 0 0 1-12.198918-5.163204c-22.457388-23.174971-58.00112-11.230817-59.499977-10.708552a17.026683 17.026683 0 0 1-21.616669-10.402836 16.946008 16.946008 0 0 1 10.262716-21.612423c2.331085-0.832227 57.444886-19.922493 95.247519 19.08602a16.979976 16.979976 0 0 1-12.194671 28.800995z" fill="#6E6E96" p-id="4935"></path><path d="M765.674223 163.468895c5.935986 1.651716 11.748836 3.596409 17.434304 5.766143a282.430635 282.430635 0 0 0-72.514137-76.068086 256.359853 256.359853 0 0 1 55.079833 70.301943z m-470.930027 17.506487a274.019198 274.019198 0 0 0-22.270562 49.228769 180.075218 180.075218 0 0 1 6.989008-1.914971 248.598064 248.598064 0 0 1 15.281554-47.313798z m559.999535 35.41635c32.741335 33.904754 52.81244 79.405486 52.81244 129.470727 0 104.852097-87.842398 189.8369-196.218722 189.8369H323.76174c-93.260365 0-168.869877-70.047179-168.869878-156.441672 0-21.213294 4.594232-41.424518 12.852811-59.87363-24.822441 29.093973-39.662405 65.830846-39.662406 105.794721 0 94.347356 82.560305 170.844293 184.406195 170.844293h423.251069c118.346062 0 214.277196-92.810283 214.277196-207.322157-0.004246-71.860245-37.840848-135.139212-95.272996-172.309182z" fill="#6E6E96" opacity=".15" p-id="4936"></path><path d="M174.139232 451.839761S139.673999 380.573964 211.169083 333.655049s124.001808 34.63083 151.928116 6.700276c27.930554-27.926308-14.933378-122.770452-118.061576-75.350503-103.123952 47.424195-101.22172 130.744544-70.896391 186.834939z" fill="#6E6E96" opacity=".15" p-id="4937"></path><path d="M687.06275 244.284071s-8.933701 73.72851 42.452064 73.72851c51.394257 0 8.937947-73.72851 49.148093-73.72851 40.218639 0 134.986354 31.463272 125.581341 136.37906 0 0 30.66926-189.076856-146.879556-189.076856l-70.301942 52.697796z" fill="#6E6E96" opacity=".15" p-id="4938"></path><path d="M732.389393 613.020032l-423.242577-0.008492c-111.047092 0-201.394663-84.258727-201.394663-187.820024 0-81.443593 56.553215-153.490664 138.765343-178.5339 32.957884-130.56621 154.369598-224.276657 292.680613-224.276657 110.405938 0 210.91432 58.379019 264.07069 152.853756 94.788945 29.582269 160.377766 116.363154 160.377767 213.483184 0.004246 123.679108-103.739631 224.302133-231.257173 224.302133zM539.202355 56.345158c-125.938009 0-236.050969 87.281919-261.824527 207.530214l-2.212195 10.334899-10.254224 2.577356c-72.531122 18.228317-123.186565 79.252628-123.186565 148.399643 0 84.831945 75.104232 153.851579 167.426219 153.851579l423.242576 0.008492c108.788191 0 197.29722-85.383932 197.29722-190.337935 0-84.296942-58.599813-159.473356-142.501872-182.81817l-7.022976-1.953185-3.422321-6.437021C730.474422 110.431414 639.455974 56.345158 539.202355 56.345158z" fill="#6E6E96" p-id="4939"></path><path d="M36.091473 951.468878h1001.461936v39.450103H36.091473z" fill="#6E6E96" opacity=".25" p-id="4940"></path><path d="M36.091473 751.246126h1001.461936v26.130226H36.091473z" fill="#FFFFFF" opacity=".15" p-id="4941"></path><path d="M53.079941 1011.694931h-0.016984c-15.701914 0-33.955707-14.334684-33.955707-32.813518v-227.631041c0-18.584985 17.926847-32.469587 33.955707-32.469587H1020.581925c16.02886 0 33.955707 13.888848 33.955707 32.469587v226.926196c0.004246 9.090805-4.700384 17.977799-12.912255 24.389343-6.662061 5.197172-14.68286 8.177903-22.011552 8.177903l-966.533884 0.951117z m-0.004246-34.558647a5.519872 5.519872 0 0 0 0.88318 0.590202l965.035025-0.951116c0.467066-0.165596 1.08699-0.509527 1.583779-0.870442l-0.004246-222.718354a4.942409 4.942409 0 0 0-0.74306-0.44159H53.814509a4.229071 4.229071 0 0 0-0.734568 0.437343v223.953957z" fill="#6E6E96" p-id="4942"></path></svg>