<?xml version="1.0" standalone="no"?><!DOCTYPE svg PUBLIC "-//W3C//DTD SVG 1.1//EN" "http://www.w3.org/Graphics/SVG/1.1/DTD/svg11.dtd"><svg t="1757078065878" class="icon" viewBox="0 0 1024 1024" version="1.1" xmlns="http://www.w3.org/2000/svg" p-id="4781" xmlns:xlink="http://www.w3.org/1999/xlink" width="200" height="200"><path d="M0.00125 510.402251a510.401751 510.401751 0 1 0 1020.803502 0 510.401751 510.401751 0 1 0-1020.803502 0z" fill="#2EBFFF" p-id="4782"></path><path d="M768.504875 231.974387H197.684153v123.09894h570.880722v-123.09994h-0.06zM300.576103 334.326337c-21.726989 0-39.351981-18.305991-39.351981-40.81298s17.624991-40.79298 39.351981-40.79298c21.746989 0 39.332981 18.285991 39.332981 40.79298s-17.585991 40.81298-39.332981 40.81298z m67.461967 454.204778c-22.506989-23.127989-33.529984-59.038971-31.429984-110.114946 0 0 11.782994-93.069955 114.315944-108.114947l0.48-1.32h-253.719877v219.549893h170.353917z m110.814946-265.82487c19.045991-21.706989 47.774977-38.771981 89.567956-30.029986 17.845991-21.705989 63.479969-62.35997 145.326929-44.412978 0 0 26.567987 4.760998 54.776974 25.046988v-73.682964H197.684153v123.05994h281.168863z m-178.276913-93.549955c18.285991 0 33.109984 15.384992 33.109984 34.350984 0 18.925991-14.823993 34.310983-33.109984 34.310983s-33.089984-15.384992-33.089984-34.309983c-0.02-18.966991 14.803993-34.351983 33.089984-34.351984z m0 0" fill="#FFFFFF" p-id="4783"></path><path d="M795.473862 591.748211c-12.923994-86.146958-88.147957-99.591951-88.147957-99.591951-81.70596-17.844991-115.056944 42.533979-115.056944 42.533979-82.70596-31.289985-106.653948 63.999969-106.653948 63.999969-87.807957 4.941998-100.751951 81.64596-100.751951 81.64596-3.019999 74.023964 33.769984 105.513948 95.689953 107.514947l1.900999 0.04c78.024962 2.339999 293.893856-0.42 293.893857-0.42 89.607956-5.761997 86.786958-100.652951 86.786958-100.65295 0.04-68.220967-67.660967-95.069954-67.660967-95.069954z m0 0" fill="#FFFFFF" p-id="4784"></path></svg>