<?xml version="1.0" standalone="no"?><!DOCTYPE svg PUBLIC "-//W3C//DTD SVG 1.1//EN" "http://www.w3.org/Graphics/SVG/1.1/DTD/svg11.dtd"><svg t="1757161330160" class="icon" viewBox="0 0 1024 1024" version="1.1" xmlns="http://www.w3.org/2000/svg" p-id="73282" xmlns:xlink="http://www.w3.org/1999/xlink" width="200" height="200"><path d="M438.663529 615.303529c-15.119059-36.502588-5.511529-54.211765-27.888941-80.534588-22.317176-26.352941-14.064941-47.465412-20.178823-61.44-6.144-14.034824 7.830588-17.829647 12.830117-28.461176 4.999529-10.661647-5.601882-105.110588-5.601882-105.110589l-4.698353 1.264942a149.624471 149.624471 0 0 0-34.966588 96.406588c0 40.719059 7.710118 99.448471 26.292706 153.178353 17.528471 50.808471 70.053647 87.04 110.893176 93.274353-23.100235-9.336471-41.652706-32.165647-56.681412-68.608" fill="#F6D0B6" p-id="73283"></path><path d="M507.361882 289.069176c-45.808941 0-86.829176 20.781176-114.236235 53.428706l4.698353-1.204706s0 94.569412-5.029647 105.291295c-5.029647 10.601412-7.649882 24.666353-1.505882 38.671058 6.144 14.004706-21.082353 39.122824 16.685176 92.521412 19.998118 28.220235 12.649412 27.949176 27.768471 64.451765 14.998588 36.442353 36.502588 33.792 59.602823 43.218823 4.186353 0.572235 8.161882 0.903529 12.047059 0.90353 42.044235 0 103.303529-40.628706 120.681412-97.611294 17.980235-58.88 28.461176-109.327059 28.461176-149.835294 0-53.007059-46.863059-149.835294-149.172706-149.835295" fill="#F6D0B6" p-id="73284"></path><path d="M456.282353 295.604706l151.552 30.057412a148.178824 148.178824 0 0 0-100.472471-39.092706c-17.980235 0-35.117176 3.222588-51.049411 9.035294" fill="#F6D0B6" p-id="73285"></path><path d="M665.569882 450.048c-20.118588 0-26.232471 21.744941-26.23247 33.611294 0 11.806118 0 48.730353 8.944941 50.959059 8.884706 2.258824 21.714824-19.636706 26.202353-39.785412 4.457412-20.148706 14.576941-44.784941-8.914824-44.784941M413.063529 320.331294c12.860235-10.480941 27.467294-18.974118 43.248942-24.726588l-45.327059-9.035294s-1.114353 16.504471 2.108235 33.731764" fill="#E9B7A3" p-id="73286"></path><path d="M673.340235 465.558588c-7.258353-3.614118-16.263529 4.939294-22.949647 13.372236-6.716235 8.432941-0.752941 13.010824 2.499765 16.926117 3.282824 3.855059-6.746353 17.648941-4.397177 23.190588 2.409412 5.662118 16.173176-13.402353 19.124706-23.16047 3.011765-9.728 12.830118-26.804706 5.722353-30.328471" fill="#B89686" p-id="73287"></path><path d="M346.593882 450.048c-23.491765 0-13.342118 24.636235-8.854588 44.784941 4.397176 20.148706 17.257412 42.044235 26.202353 39.785412 5.360941-1.385412 4.698353-14.968471 5.541647-28.551529 0.512-8.734118 3.312941-17.799529 3.312941-22.40753 0-11.866353-6.083765-33.611294-26.202353-33.611294" fill="#F6D0B6" p-id="73288"></path><path d="M343.642353 458.902588c-7.649882 2.168471-1.114353 20.781176 0 30.870588 1.114353 10.059294 11.143529 31.412706 14.516706 26.352942 3.343059-5.059765-3.915294-20.48 0-23.732706 3.915294-3.222588 10.631529-6.625882 5.571765-16.082824-5.029647-9.577412-12.257882-19.696941-20.058353-17.408" fill="#C8A28F" p-id="73289"></path><path d="M384.993882 344.064c-25.208471 26.714353-14.998588 102.369882-7.920941 140.047059l10.390588 1.14447c-11.986824-74.089412 2.409412-139.083294 30.870589-147.154823-7.649882-7.920941-18.281412-9.968941-33.340236 5.963294" fill="#211A16" p-id="73290"></path><path d="M480.075294 384.722824l-0.903529-3.011765c-0.301176 0.542118 0 1.566118 0.903529 3.011765" fill="#3B2F29" p-id="73291"></path><path d="M624.700235 437.970824c-60.235294 20.269176-139.173647-43.489882-145.769411-54.814118l0.783058 2.590118c13.854118 15.661176 33.189647 32.105412 63.939765 51.772235 61.229176 39.273412 85.473882 4.879059 108.724706 12.528941 31.322353 10.300235 47.826824-61.921882 47.826823-61.921882l-7.228235 10.902588c-19.636706 41.953882-11.986824 20.028235-68.276706 38.942118" fill="#211A16" p-id="73292"></path><path d="M669.515294 400.474353c-14.968471 17.106824-39.002353-0.542118-74.992941-0.090353-41.773176 0.542118-103.484235-26.864941-138.300235-44.333176 3.192471 3.614118 6.384941 7.740235 9.758117 12.438588 4.005647 5.722353 8.493176 11.444706 13.733647 17.257412l-0.783058-2.56c-0.391529-0.692706-0.512-1.204706-0.39153-1.475765-0.120471 0.271059 0 0.783059 0.39153 1.475765 6.595765 11.294118 85.534118 75.053176 145.769411 54.814117 56.32-18.944 48.64 2.981647 68.306824-38.972235-9.216 20.751059-12.227765 3.915294-23.491765 1.445647" fill="#3B2F29" p-id="73293"></path><path d="M456.282353 197.963294c-45.296941 15.962353-68.818824 65.114353-68.818824 65.114353s-47.495529 6.716235-64.451764 49.694118c-14.637176 36.894118 22.829176 146.130824 22.829176 146.130823l19.275294 0.301177 7.710118 24.455529 4.216471 0.481882c-7.047529-37.707294-17.257412-113.362824 7.951058-140.047058 15.058824-15.962353 25.690353-13.914353 33.340236-6.02353 8.071529-2.288941 17.227294 0 27.196235 7.860706 39.333647 8.734118 140.589176 27.798588 168.116706-1.867294 15.781647-17.016471 40.538353-29.123765 47.646117-34.635294a268.649412 268.649412 0 0 0-11.173647-27.617882c-36.954353-77.402353-148.510118-99.84-193.807058-83.84753" fill="#3B2F29" p-id="73294"></path><path d="M661.293176 309.428706c-7.107765 5.511529-31.864471 17.618824-47.646117 34.635294-27.527529 29.665882-128.783059 10.601412-168.116706 1.867294 3.493647 2.680471 7.047529 6.023529 10.691765 10.11953 34.816 17.468235 96.527059 44.875294 138.330353 44.333176 35.960471-0.451765 59.994353 17.197176 74.992941 0.090353-0.150588-0.090353-0.361412-0.090353-0.481883-0.090353-13.071059-3.282824 2.048-62.223059-7.770353-90.955294" fill="#231D19" p-id="73295"></path><path d="M435.049412 220.16c-22.949647 13.402353-43.580235 35.960471-41.411765 49.603765 3.644235 22.738824 12.288 55.567059 22.588235 50.567529 10.24-4.999529 38.580706 27.858824 36.653177 5.330824-7.348706-84.48 75.595294-108.423529 69.150117-116.043294-6.415059-7.589647-64.150588-2.951529-86.979764 10.541176M350.418824 290.394353c-20.781176 17.106824-23.160471 39.152941-20.329412 65.114353 0 0 10.24 62.885647 16.052706 80.835765h11.565176s-25.901176-84.208941-7.920941-115.621647c25.6-44.513882 15.661176-42.616471 0.602353-30.328471" fill="#645247" p-id="73296"></path><path d="M658.913882 712.704c16.624941 5.872941 33.219765 11.806118 49.874824 17.618824l162.544941 56.741647c1.746824 0.602353 3.553882 1.024 4.336941 3.011764 0.180706 1.716706 0.301176 3.433412 0.542118 5.12l14.667294 94.930824c4.909176 31.924706 9.878588 63.819294 14.667294 95.744 1.505882 10.179765 3.734588 20.269176 4.336941 30.599529h-203.474823c1.807059-4.818824 4.818824-9.095529 6.927059-13.733647 6.083765-13.312 13.703529-25.810824 20.058353-39.002353 6.565647-13.522824 13.793882-26.714353 20.931764-39.966117 1.445647-2.680471 0.722824-4.005647-1.325176-5.601883L696.139294 873.411765c-12.227765-9.637647-24.455529-19.275294-36.713412-28.822589-2.288941-1.807059-2.288941-3.011765 0.602353-4.065882 2.590118-0.933647 5.12-1.987765 7.68-3.041882 14.516706-6.204235 29.033412-12.438588 43.580236-18.582588 8.493176-3.614118 17.046588-7.017412 25.539764-10.541177 2.861176-1.204706 3.734588-2.620235 0.873412-4.999529-6.324706-5.210353-12.438588-10.631529-18.672941-15.872-11.535059-9.637647-23.130353-19.215059-34.635294-28.882824-13.101176-11.023059-26.112-22.166588-39.152941-33.249882-11.294118-9.547294-22.588235-19.064471-33.822118-28.611765 1.505882 0.421647 3.041882 0.722824 4.517647 1.204706l42.977882 14.757647M113.392941 1016.470588c-0.150588-7.198118 1.686588-14.155294 2.710588-21.172706 5.330824-35.056941 10.812235-70.083765 16.203295-105.110588 4.969412-32.045176 10.059294-64.030118 14.727529-96.105412 0.662588-4.608 2.590118-6.324706 6.625882-7.740235 75.203765-26.112 150.377412-52.404706 225.551059-78.607059l28.732235-10.059294c1.204706-0.421647 2.409412-1.144471 3.794824-0.783059-3.433412 2.620235-7.228235 4.879059-10.24 7.951059-4.427294 4.517647-9.396706 8.432941-14.155294 12.559059-7.318588 6.415059-15.149176 12.288-22.618353 18.522353-13.854118 11.565176-27.648 23.250824-41.502118 34.846118-12.920471 10.842353-25.901176 21.564235-38.851764 32.436705-3.011765 2.56-2.831059 3.614118 0.903529 5.180236 13.312 5.662118 26.684235 11.233882 39.996235 16.865882l35.990588 15.209412c3.403294 1.415529 3.433412 2.108235 0.542118 4.427294-11.896471 9.607529-23.883294 19.094588-35.96047 28.461176-18.763294 14.546824-37.255529 29.424941-55.898353 44.122353-4.306824 3.403294-4.216471 3.553882-1.596236 8.372706 6.324706 11.745882 12.498824 23.521882 18.672941 35.328 5.963294 11.324235 12.047059 22.588235 17.739295 34.032941 3.523765 7.077647 7.740235 13.824 10.541176 21.263059H113.362824z" fill="#393435" p-id="73297"></path><path d="M315.271529 1016.470588c-2.770824-7.439059-6.987294-14.185412-10.511058-21.263059-5.722353-11.444706-11.745882-22.708706-17.709177-34.032941-6.204235-11.806118-12.348235-23.612235-18.672941-35.328-2.620235-4.818824-2.710588-4.969412 1.566118-8.372706 18.642824-14.697412 37.135059-29.575529 55.898353-44.122353 12.047059-9.366588 24.064-18.853647 35.96047-28.461176 2.891294-2.319059 2.861176-3.011765-0.542118-4.427294L325.270588 825.223529c-13.312-5.601882-26.684235-11.173647-40.026353-16.865882-3.704471-1.536-3.915294-2.590118-0.843294-5.150118 12.890353-10.842353 25.901176-21.594353 38.851765-32.436705 13.854118-11.595294 27.587765-23.280941 41.472-34.846118 7.469176-6.234353 15.299765-12.107294 22.618353-18.522353 4.758588-4.156235 9.728-8.041412 14.155294-12.559059 3.011765-3.072 6.806588-5.330824 10.24-7.951059a14.998588 14.998588 0 0 1 0.421647-0.662588c0.120471 0.210824 0.301176 0.331294 0.512 0.331294 0.602353 6.987294 1.264941 13.944471 1.897412 20.901647a5.089882 5.089882 0 0 0 0.451764 3.343059l0.180706 3.011765c0.752941 8.824471 1.475765 17.648941 2.288942 26.503529 2.409412 26.322824 4.909176 52.645647 7.378823 78.968471 2.529882 26.624 5.089882 53.187765 7.589647 79.811764 2.56 27.105882 5.150118 54.211765 7.529412 81.377883 0.783059 8.643765 2.409412 17.257412 1.987765 25.991529H315.271529zM611.388235 696.741647c11.294118 9.547294 22.588235 19.064471 33.822118 28.611765 13.071059 11.083294 26.081882 22.226824 39.183059 33.249882 11.504941 9.667765 23.100235 19.215059 34.635294 28.882824 6.234353 5.240471 12.348235 10.661647 18.672941 15.872 2.861176 2.379294 1.987765 3.794824-0.873412 4.969411-8.493176 3.553882-17.046588 6.957176-25.539764 10.541177-14.546824 6.174118-29.063529 12.408471-43.580236 18.612706-2.529882 1.054118-5.12 2.108235-7.710117 3.011764-2.861176 1.054118-2.861176 2.288941-0.572236 4.096l36.74353 28.792471c18.944 14.938353 37.857882 29.876706 56.832 44.784941 2.048 1.596235 2.770824 2.921412 1.325176 5.601883-7.137882 13.251765-14.366118 26.443294-20.931764 39.966117-6.324706 13.191529-13.974588 25.690353-20.058353 39.002353-2.108235 4.638118-5.12 8.884706-6.927059 13.733647h-126.674824c-0.391529-2.409412 0.090353-4.728471 0.301177-7.107764l3.614117-37.104942L590.305882 903.529412l6.836706-69.872941c2.228706-23.070118 4.517647-46.08 6.716236-69.12 1.204706-12.498824 2.288941-24.997647 3.433411-37.526589l0.150589-2.228706a6.716235 6.716235 0 0 0 0.512-4.156235l0.271058-3.824941c0.391529-0.752941 0.602353-1.566118 0.301177-2.409412 0.722824-5.541647 1.596235-11.083294 1.355294-16.715294l-0.090353 0.060235 0.662588-0.903529a1.054118 1.054118 0 0 0 0.301177-0.572235l0.662588 0.481882" fill="#4A4445" p-id="73298"></path><path d="M553.592471 1016.470588h-83.124706c1.807059-10.420706 3.674353-20.841412 5.421176-31.262117 5.511529-32.286118 10.842353-64.602353 16.474353-96.888471 2.590118-14.908235 2.710588-14.848-4.668235-28.16-7.228235-13.010824-14.366118-26.112-21.534118-39.183059l40.658824-43.188706h0.903529l45.95953 42.345412c-8.523294 16.564706-17.016471 33.129412-25.6 49.694118-0.903529 1.807059-1.656471 3.463529-1.204706 5.632l16.835764 88.395294 9.878589 52.615529" fill="#E95C2C" p-id="73299"></path><path d="M466.160941 820.976941c7.168 13.071059 14.305882 26.172235 21.534118 39.183059 7.408941 13.312 7.228235 13.251765 4.668235 28.16-5.601882 32.286118-10.962824 64.602353-16.444235 96.888471l-5.451294 31.262117h-28.491294c0.391529-8.734118-1.204706-17.347765-1.957647-25.991529-2.409412-27.136-4.999529-54.272-7.55953-81.377883l-7.589647-79.811764-7.378823-78.998588c-0.813176-8.824471-1.505882-17.648941-2.288942-26.443295 0.963765 0.421647 1.264941 1.204706 1.385412 2.198589l1.626353 11.38447c2.710588 19.215059 5.330824 38.430118 8.071529 57.615059 2.529882 17.769412 5.180235 35.538824 7.740236 53.278118 0.210824 1.385412-0.120471 3.222588 1.566117 3.734588 1.505882 0.421647 2.258824-1.174588 3.102118-2.078118 9.185882-9.637647 18.311529-19.335529 27.467294-29.003294M553.592471 1016.470588l-9.878589-52.615529c-5.601882-29.455059-11.203765-58.940235-16.865882-88.395294-0.421647-2.168471 0.301176-3.824941 1.234824-5.632 8.583529-16.564706 17.076706-33.129412 25.6-49.694118 0.813176 0.873412 1.505882 1.807059 2.439529 2.56 10.029176 8.131765 18.913882 17.558588 28.702118 25.991529 0.963765 0.813176 1.716706 2.409412 3.19247 1.957648 1.807059-0.542118 0.993882-2.439529 1.264941-3.764706 0.271059-1.445647 0.481882-2.861176 0.692706-4.306824l7.740236-55.717647c2.228706-16.082824 4.276706-32.195765 6.746352-48.248471 0.602353-3.885176-0.421647-8.312471 2.831059-11.595294-1.144471 12.498824-2.228706 24.997647-3.433411 37.526589-2.198588 23.04-4.487529 46.08-6.716236 69.089882L590.305882 903.529412l-6.656 68.72847-3.614117 37.104942c-0.210824 2.379294-0.692706 4.728471-0.301177 7.107764h-26.142117z" fill="#D2E0F0" p-id="73300"></path><path d="M612.773647 612.532706l-1.234823 47.616c-0.301176 12.047059-0.512 24.094118-0.783059 36.141176a1.054118 1.054118 0 0 1-0.301177 0.542118 197.872941 197.872941 0 0 0-0.662588 0.903529l0.090353-0.060235c-1.807059-0.150588-2.891294 1.084235-4.126118 2.048-30.177882 23.732706-60.385882 47.435294-90.503529 71.228235-2.650353 2.108235-5.933176 3.553882-7.529412 6.836706h-0.903529c-1.957647-3.011765-4.848941-5.12-7.529412-7.439059-16.715294-14.305882-33.430588-28.581647-50.176-42.827294l-36.442353-30.960941c-0.240941 0-0.391529-0.090353-0.512-0.331294-2.108235-22.497882-4.216471-44.995765-6.234353-67.493647-0.391529-4.336941-1.355294-8.613647-0.993882-13.010824 4.397176 3.704471 9.185882 7.047529 12.498823 11.926589 0.240941 0.873412 0.240941 1.987765 0.783059 2.590117 4.517647 5.029647 7.890824 10.902588 12.047059 16.173177 13.974588 17.709176 27.497412 35.779765 42.465882 52.736 7.378824 8.372706 16.112941 12.047059 26.593883 13.733647 9.065412 1.445647 17.889882 0.030118 26.714353-1.204706a23.582118 23.582118 0 0 0 12.679529-5.059765c5.150118-4.577882 9.818353-9.637647 13.914353-15.149176 12.769882-17.136941 25.901176-34.032941 37.616941-51.892706 2.921412-4.457412 7.288471-8.071529 8.463059-13.613177 4.065882-4.306824 8.131765-8.613647 12.227765-12.830117 0.391529-0.421647 1.204706-0.391529 1.837176-0.602353" fill="#EBC29D" p-id="73301"></path><path d="M387.433412 570.729412l0.090353 0.451764-0.361412-0.180705 0.301176-0.240942z" fill="#EAC29D" p-id="73302"></path><path d="M412.672 696.560941l36.442353 30.960941c16.745412 14.245647 33.460706 28.521412 50.176 42.827294 2.680471 2.319059 5.571765 4.397176 7.529412 7.439059l-40.658824 43.188706c-9.155765 9.637647-18.281412 19.365647-27.467294 29.003294-0.843294 0.903529-1.626353 2.499765-3.102118 2.078118-1.686588-0.512-1.355294-2.349176-1.566117-3.734588-2.56-17.769412-5.210353-35.508706-7.740236-53.278118l-8.071529-57.615059-1.626353-11.38447c-0.120471-0.963765-0.421647-1.776941-1.385412-2.198589l-0.180706-3.041882c0.903529-1.264941 1.114353-2.409412-0.451764-3.312941l-1.897412-20.931765" fill="#F3F7FA" p-id="73303"></path><path d="M414.689882 717.462588c3.674353 0.903529 3.192471 2.078118 1.114353 3.343059-1.415529-1.054118-1.475765-2.168471-1.114353-3.343059" fill="#D2E0F0" p-id="73304"></path><path d="M507.753412 777.788235c1.566118-3.282824 4.848941-4.758588 7.499294-6.836706 30.117647-23.792941 60.325647-47.495529 90.503529-71.228235 1.234824-0.963765 2.349176-2.198588 4.126118-2.048 0.240941 5.632-0.632471 11.143529-1.355294 16.715294-0.752941 0.722824-1.114353 1.505882-0.301177 2.409412l-0.271058 3.824941c-1.746824 1.204706-1.475765 2.620235-0.512 4.156235l-0.150589 2.228706c-3.252706 3.312941-2.228706 7.710118-2.831059 11.595294-2.469647 16.052706-4.517647 32.165647-6.746352 48.278589l-7.740236 55.687529a87.792941 87.792941 0 0 1-0.692706 4.306824c-0.271059 1.325176 0.572235 3.222588-1.264941 3.764706-1.475765 0.451765-2.228706-1.144471-3.19247-1.957648-9.788235-8.432941-18.672941-17.859765-28.702118-25.991529-0.903529-0.722824-1.626353-1.686588-2.439529-2.56l-45.929412-42.345412" fill="#F3F7FA" p-id="73305"></path><path d="M608.346353 724.781176c-2.108235-1.505882-2.710588-2.981647 1.144471-4.156235 0.361412 1.415529 0.391529 2.831059-1.144471 4.156235M609.099294 717.402353c-1.897412-1.174588-1.054118-2.108235 0.722824-3.011765 0.662588 1.054118 0.180706 2.048-0.722824 3.011765" fill="#D2E0F0" p-id="73306"></path><path d="M610.213647 699.181176l1.536-2.078117-1.536 2.078117" fill="#F3F7FA" p-id="73307"></path><path d="M598.738824 625.965176c-1.204706 5.541647-5.571765 9.155765-8.493177 13.613177-11.745882 17.859765-24.847059 34.755765-37.586823 51.892706a100.261647 100.261647 0 0 1-13.944471 15.149176 23.582118 23.582118 0 0 1-12.649412 5.089883c-8.854588 1.204706-17.679059 2.620235-26.74447 1.174588-10.480941-1.686588-19.215059-5.360941-26.593883-13.733647-14.968471-16.956235-28.491294-35.026824-42.465882-52.736-4.156235-5.270588-7.529412-11.143529-12.047059-16.173177-0.542118-0.602353-0.542118-1.716706-0.783059-2.590117 5.029647 4.427294 10.119529 8.794353 15.119059 13.251764 8.252235 7.408941 16.715294 14.486588 25.419294 21.38353 5.722353 4.517647 12.137412 7.348706 19.395765 8.041412a286.117647 286.117647 0 0 0 66.861176-0.90353c8.131765-1.174588 13.492706-6.836706 19.33553-11.655529 12.167529-10.089412 23.582118-21.082353 35.147294-31.804236" fill="#D8B290" p-id="73308"></path></svg>