<?xml version="1.0" standalone="no"?><!DOCTYPE svg PUBLIC "-//W3C//DTD SVG 1.1//EN" "http://www.w3.org/Graphics/SVG/1.1/DTD/svg11.dtd"><svg t="1757657128373" class="icon" viewBox="0 0 1024 1024" version="1.1" xmlns="http://www.w3.org/2000/svg" p-id="5227" xmlns:xlink="http://www.w3.org/1999/xlink" width="200" height="200"><path d="M699.562667 371.989333a34.346667 34.346667 0 0 1 39.189333 28.906667 34.709333 34.709333 0 0 1-25.322667 38.997333l-3.242666 0.661334-357.12 56.768a34.346667 34.346667 0 0 1-39.168-28.906667A34.709333 34.709333 0 0 1 339.2 429.44l3.242667-0.661333 357.12-56.768z m0.234666 175.616a34.346667 34.346667 0 0 1 38.997334 29.162667 34.709333 34.709333 0 0 1-25.6 38.826667l-3.221334 0.64-396.032 60.16a34.346667 34.346667 0 0 1-38.976-29.162667 34.709333 34.709333 0 0 1 25.557334-38.826667l3.242666-0.64 396.032-60.16zM543.616 188.373333c18.56-3.712 36.586667 8.533333 40.256 27.306667 3.456 17.706667-7.04 34.922667-23.765333 39.978667l-3.2 0.810666-241.408 48.298667c-18.56 3.733333-36.608-8.512-40.277334-27.306667a34.752 34.752 0 0 1 23.786667-39.978666l3.2-0.810667 241.408-48.298667zM714.666667 744.512a34.282667 34.282667 0 0 1 40.938666 26.282667 34.773333 34.773333 0 0 1-22.784 40.576l-3.2 0.874666-252.885333 57.322667a34.282667 34.282667 0 0 1-40.917333-26.304 34.773333 34.773333 0 0 1 22.762666-40.554667l3.2-0.896L714.666667 744.533333z" fill="#007DFA" p-id="5228"></path><path d="M309.098667 236.842667a34.24 34.24 0 0 0-39.893334 23.338666 34.794667 34.794667 0 0 0 22.186667 43.648l465.984 150.997334 3.2 0.874666c17.066667 3.776 34.474667-6.165333 39.893333-23.338666a34.794667 34.794667 0 0 0-22.186666-43.648l-466.005334-150.997334-3.2-0.874666z m-62.762667 194.837333a34.24 34.24 0 0 1 39.893333-23.338667l3.2 0.853334 466.005334 151.04a34.794667 34.794667 0 0 1 22.186666 43.626666 34.24 34.24 0 0 1-39.893333 23.338667l-3.2-0.853333-465.984-151.04a34.794667 34.794667 0 0 1-22.186667-43.626667z m-22.826667 185.109333a34.24 34.24 0 0 1 39.893334-23.338666l3.2 0.853333 465.984 151.04a34.794667 34.794667 0 0 1 22.186666 43.626667 34.24 34.24 0 0 1-39.893333 23.338666l-3.2-0.853333-465.984-151.04a34.794667 34.794667 0 0 1-22.186667-43.626667z" fill="#007DFA" p-id="5229"></path></svg>