<?xml version="1.0" standalone="no"?><!DOCTYPE svg PUBLIC "-//W3C//DTD SVG 1.1//EN" "http://www.w3.org/Graphics/SVG/1.1/DTD/svg11.dtd"><svg t="1758078163423" class="icon" viewBox="0 0 1024 1024" version="1.1" xmlns="http://www.w3.org/2000/svg" p-id="7665" xmlns:xlink="http://www.w3.org/1999/xlink" width="200" height="200"><path d="M511.43111111 3.64088889c68.15288889-0.34133333 135.62311111 13.19822222 198.31466667 39.82222222 121.62844445 51.88266667 218.45333333 148.70755555 270.336 270.336 53.70311111 126.40711111 53.70311111 269.19822222 0 395.71911111-25.48622222 60.416-62.464 115.37066667-108.77155556 161.792-46.53511111 46.30755555-101.376 83.28533333-161.56444444 109.34044445-126.74844445 53.13422222-269.42577778 53.13422222-396.06044445 0-60.07466667-26.05511111-114.57422222-63.14666667-160.99555555-109.34044445-46.42133333-46.42133333-83.28533333-101.376-108.77155556-161.792-26.96533333-62.57777778-40.73244445-130.048-40.27733333-198.31466667-0.56888889-67.92533333 13.19822222-135.168 40.27733333-197.40444444 25.71377778-60.07466667 62.57777778-114.688 108.77155556-160.99555556 46.30755555-46.19377778 100.92088889-83.28533333 160.99555555-109.34044444 62.464-26.624 129.82044445-40.16355555 197.74577778-39.82222222z m211.85422222 568.54755556c18.20444445 0.22755555 36.06755555-5.34755555 50.85866667-16.04266667 15.13244445-10.12622222 23.77955555-27.53422222 22.75555555-45.73866667 0.91022222-17.63555555-7.85066667-34.47466667-22.75555555-44.032-15.24622222-9.44355555-32.88177778-14.44977778-50.85866667-14.44977778h-418.70222222c-18.31822222 0-36.29511111 5.00622222-51.99644444 14.44977778-15.58755555 9.10222222-24.68977778 26.05511111-23.77955556 44.032-1.024 18.432 8.07822222 35.95377778 23.77955556 45.73866667 15.24622222 10.69511111 33.45066667 16.384 51.99644444 16.04266667h418.70222222z" fill="#EC6663" p-id="7666"></path></svg>