<?xml version="1.0" standalone="no"?><!DOCTYPE svg PUBLIC "-//W3C//DTD SVG 1.1//EN" "http://www.w3.org/Graphics/SVG/1.1/DTD/svg11.dtd"><svg t="1757235162030" class="icon" viewBox="0 0 1024 1024" version="1.1" xmlns="http://www.w3.org/2000/svg" p-id="41398" xmlns:xlink="http://www.w3.org/1999/xlink" width="200" height="200"><path d="M819.2 0h-614.4c-112.64 0-204.8 92.16-204.8 204.8v614.4c0 112.64 92.16 204.8 204.8 204.8h614.4c112.64 0 204.8-92.16 204.8-204.8v-614.4c0-112.64-92.16-204.8-204.8-204.8z m-550.4 487.68c72.96-58.88 126.72-129.28 162.56-208.64l38.4 16.64c-43.52 90.88-99.84 166.4-170.24 224-8.96-11.52-19.2-21.76-30.72-32z m398.08 250.88c-8.96-15.36-19.2-30.72-29.44-46.08-107.52 5.12-194.56 10.24-261.12 15.36-12.8 1.28-26.88 3.84-44.8 7.68l-21.76-40.96c14.08-6.4 28.16-15.36 40.96-26.88 38.4-43.52 79.36-108.8 124.16-194.56l42.24 19.2c-39.68 69.12-83.2 134.4-129.28 194.56 66.56-2.56 143.36-5.12 227.84-8.96-17.92-28.16-38.4-57.6-61.44-89.6l32-20.48c47.36 60.16 85.76 116.48 119.04 165.12l-38.4 25.6z m58.88-227.84c-89.6-61.44-149.76-136.96-181.76-225.28l35.84-14.08c32 84.48 89.6 152.32 175.36 202.24-7.68 8.96-17.92 21.76-29.44 37.12z" fill="#FF9A22" p-id="41399"></path></svg>