<?xml version="1.0" standalone="no"?><!DOCTYPE svg PUBLIC "-//W3C//DTD SVG 1.1//EN" "http://www.w3.org/Graphics/SVG/1.1/DTD/svg11.dtd"><svg t="1757235091880" class="icon" viewBox="0 0 1024 1024" version="1.1" xmlns="http://www.w3.org/2000/svg" p-id="33733" xmlns:xlink="http://www.w3.org/1999/xlink" width="200" height="200"><path d="M589.1072 66.048c7.0656 7.3728 10.9568 17.2032 10.9568 27.4432v211.7632c6.144 0.1024 12.1856 1.8432 17.408 5.0176 73.9328 45.056 119.7056 120.4224 119.7056 203.1616 0 80.1792-42.9056 153.4976-113.152 199.0656-7.0656 4.608-15.6672 6.4512-23.9616 5.12v217.9072a39.77216 39.77216 0 0 1-67.1744 28.7744L315.5968 757.0432a52.81792 52.81792 0 0 0-36.5568-14.6432H128c-36.5568 0-66.2528-29.696-66.2528-66.2528V352.9728c0-36.5568 29.696-66.2528 66.2528-66.2528h151.04c13.6192 0 26.7264-5.2224 36.5568-14.6432L532.8896 64.7168a39.7824 39.7824 0 0 1 56.2176 1.3312z m221.4912 808.1408c9.216-16.5888 30.208-22.6304 46.7968-13.4144l80.384 44.6464 0.7168 0.4096c16.0768 9.4208 21.7088 30.0032 12.5952 46.3872a34.46784 34.46784 0 0 1-46.7968 13.4144l-80.384-44.6464-0.7168-0.4096a34.4576 34.4576 0 0 1-12.5952-46.3872zM600.1664 381.7472v263.4752c43.1104-33.28 68.1984-80.7936 68.1984-131.6864 0-50.9952-25.1904-98.6112-68.1984-131.7888z m331.4688 90.9312c18.6368 0 33.9968 14.848 34.4064 33.5872 0.4096 19.0464-14.5408 34.816-33.5872 35.2256l-97.9968 2.3552h-0.8192c-18.6368 0-33.9968-14.848-34.4064-33.5872a34.36544 34.36544 0 0 1 33.5872-35.2256l97.9968-2.3552h0.8192z m-4.3008-397.824c9.1136 16.384 3.4816 36.9664-12.5952 46.3872l-0.7168 0.4096-80.384 44.6464c-16.5888 9.216-37.5808 3.2768-46.7968-13.4144-9.1136-16.384-3.4816-36.9664 12.5952-46.3872l0.7168-0.4096L880.5376 61.44c16.5888-9.216 37.5808-3.2768 46.7968 13.4144z" fill="#409EFF" p-id="33734"></path></svg>