<?xml version="1.0" standalone="no"?><!DOCTYPE svg PUBLIC "-//W3C//DTD SVG 1.1//EN" "http://www.w3.org/Graphics/SVG/1.1/DTD/svg11.dtd"><svg t="1757235048410" class="icon" viewBox="0 0 1024 1024" version="1.1" xmlns="http://www.w3.org/2000/svg" p-id="27097" xmlns:xlink="http://www.w3.org/1999/xlink" width="200" height="200"><path d="M513.448 0C232.736 0 5.168 227.56 5.168 508.28c0 280.712 227.56 508.28 508.28 508.28s508.28-227.56 508.28-508.28C1021.728 227.56 794.16 0 513.448 0z m264.568 702c0 54.896-27.024 82.136-81.056 81.712-28.528 0-63.544-0.44-105.048-1.296-1.296-14.704-4.536-33.512-9.728-56.424 41.064 3.456 75.216 5.408 102.456 5.84 27.232 0.856 40.848-12.768 40.848-40.856V323.312H538.744c-1.736 39.344-6.488 74.36-14.264 105.048 76.512 61.392 138.328 115.424 185.456 162.112l-39.552 42.152c-46.256-50.576-100.08-103.104-161.464-157.568-29.4 63.544-85.384 118.88-167.944 166-18.16-25.072-30.264-40.632-36.312-46.688 70.464-37.168 118.664-78.464 144.6-123.848 20.752-33.28 32.848-82.352 36.312-147.192H300.112v466.224h-52.52v-515.52h239.272V162.496h53.176v111.528h237.976V702z" fill="#70B603" p-id="27098"></path></svg>