<?xml version="1.0" standalone="no"?><!DOCTYPE svg PUBLIC "-//W3C//DTD SVG 1.1//EN" "http://www.w3.org/Graphics/SVG/1.1/DTD/svg11.dtd"><svg t="1757757197256" class="icon" viewBox="0 0 1024 1024" version="1.1" xmlns="http://www.w3.org/2000/svg" p-id="6458" xmlns:xlink="http://www.w3.org/1999/xlink" width="200" height="200"><path d="M872.132284 1021.951391H164.85015a90.343641 90.343641 0 0 1-90.13878-90.446071V290.495676a86.963437 86.963437 0 0 1 27.041634-64.633603l198.305317-198.715038A89.524198 89.524198 0 0 1 364.999215 0.00297h492.280656a90.446072 90.446072 0 0 1 90.241211 90.343642v856.318412a74.671785 74.671785 0 0 1-75.388798 75.388798z m-665.797809-511.025425a71.701302 71.701302 0 0 0-64.223881 76.720393v267.75315a71.701302 71.701302 0 0 0 64.223881 76.617963h609.25621a71.701302 71.701302 0 0 0 64.121451-76.617963V587.646359a71.701302 71.701302 0 0 0-64.121451-76.720393z m586.926376-435.226906a45.171821 45.171821 0 0 0-46.093694 46.093694v211.416412a45.171821 45.171821 0 0 0 46.093694 46.093694 47.42529 47.42529 0 0 0 46.298555-46.196124V121.690324a45.479112 45.479112 0 0 0-46.196124-46.196125z m-185.194221 0a45.274251 45.274251 0 0 0-46.093694 46.093694v211.416412a45.274251 45.274251 0 0 0 46.093694 46.093694 47.42529 47.42529 0 0 0 46.298555-46.196124V121.690324a45.479112 45.479112 0 0 0-46.093694-46.196125z m-185.091791 0a45.274251 45.274251 0 0 0-46.093694 46.093694v211.416412a45.274251 45.274251 0 0 0 46.093694 46.093694 46.196125 46.196125 0 0 0 46.298555-46.196124V121.690324a45.274251 45.274251 0 0 0-46.298555-46.196125z" fill="#1890FF" p-id="6459"></path><path d="M252.42817 570.028325h516.96639a54.697851 54.697851 0 0 1 54.39056 55.005142v192.569212a54.697851 54.697851 0 0 1-54.39056 55.005142H252.42817a54.800281 54.800281 0 0 1-54.800281-55.005142V624.931037a54.800281 54.800281 0 0 1 54.492989-55.005142" fill="#1890FF" p-id="6460"></path></svg>