<?xml version="1.0" standalone="no"?><!DOCTYPE svg PUBLIC "-//W3C//DTD SVG 1.1//EN" "http://www.w3.org/Graphics/SVG/1.1/DTD/svg11.dtd"><svg t="1757240826988" class="icon" viewBox="0 0 1024 1024" version="1.1" xmlns="http://www.w3.org/2000/svg" p-id="2866" xmlns:xlink="http://www.w3.org/1999/xlink" width="200" height="200"><path d="M688.64 77.44a271.552 271.552 0 0 0-271.488 271.552c0.192 33.792 6.784 67.2 19.392 98.56l-329.856 329.856c-9.6 9.536-15.424 18.56-15.424 33.152v81.472c0 29.056 25.216 54.336 54.272 54.336h81.472c14.528 0 23.744-5.888 33.28-15.36l38.976-38.976h63.616a54.336 54.336 0 0 0 54.272-54.272v-54.336h54.336a54.336 54.336 0 0 0 54.272-54.272v-63.68L590.08 601.088c30.72 12.16 63.68 19.456 98.56 19.456a271.552 271.552 0 0 0 0-543.04z m0 488.768a215.04 215.04 0 0 1-109.696-30.72l-9.28 9.344-30.592 30.528-51.712 51.712a54.272 54.272 0 0 0-15.936 38.4v63.68h-54.272a54.336 54.336 0 0 0-54.336 54.272v54.336h-63.552c-14.4 0-28.16 5.76-38.4 15.872l-38.528 38.528-76.672-0.128-0.128-77.376 316.736-316.16v0.064l39.936-39.872a214.976 214.976 0 0 1-30.72-109.696 217.216 217.216 0 1 1 217.216 217.216z" fill="#39ADFF" p-id="2867"></path><path d="M846.528 301.504a480.768 480.768 0 0 0-110.08-110.08 26.112 26.112 0 0 0-23.936-3.456c-37.76 13.312-63.552 39.04-76.8 76.8a25.856 25.856 0 0 0 3.52 23.936 481.536 481.536 0 0 0 110.08 110.08 26.24 26.24 0 0 0 23.872 3.456c37.76-13.184 63.616-39.04 76.8-76.8a25.856 25.856 0 0 0-3.456-23.936z m-81.472 75.264a464.896 464.896 0 0 1-103.68-103.04 94.08 94.08 0 0 1 59.264-60.288c39.872 28.672 74.88 63.616 103.616 103.488-10.624 29.76-30.272 49.28-59.2 59.84z" fill="#39ADFF" p-id="2868"></path></svg>