<?xml version="1.0" standalone="no"?><!DOCTYPE svg PUBLIC "-//W3C//DTD SVG 1.1//EN" "http://www.w3.org/Graphics/SVG/1.1/DTD/svg11.dtd"><svg t="1757161306337" class="icon" viewBox="0 0 1024 1024" version="1.1" xmlns="http://www.w3.org/2000/svg" p-id="72229" xmlns:xlink="http://www.w3.org/1999/xlink" width="200" height="200"><path d="M478.9 507.1c93.3-22.2 162.7-106.3 162.7-206.7C641.6 183.1 546.8 88 429.9 88s-211.7 95.1-211.7 212.4c0 100.4 69.4 184.5 162.7 206.7C172.9 531.5 11.4 709 11.4 924.2h836.9c0-215.2-161.4-392.7-369.4-417.1z" fill="#487FFF" p-id="72230"></path><path d="M687.4 551.7c83-20.1 143.8-94.7 143.8-183.7 0-104.1-84.4-188.8-188.1-188.8S455 263.9 455 368c0 89 61.5 163.6 143.8 183.7C414.1 573.9 271.1 731.1 271.1 922H1015c0-190.9-143.1-348.8-327.6-370.3z" fill="#487FFF" opacity=".6" p-id="72231"></path></svg>