<?xml version="1.0" standalone="no"?><!DOCTYPE svg PUBLIC "-//W3C//DTD SVG 1.1//EN" "http://www.w3.org/Graphics/SVG/1.1/DTD/svg11.dtd"><svg t="1759304518849" class="icon" viewBox="0 0 1024 1024" version="1.1" xmlns="http://www.w3.org/2000/svg" p-id="8478" xmlns:xlink="http://www.w3.org/1999/xlink" width="200" height="200"><path d="M938.666667 0a85.333333 85.333333 0 0 1 85.333333 85.333333v853.333334a85.333333 85.333333 0 0 1-85.333333 85.333333H85.333333a85.333333 85.333333 0 0 1-85.333333-85.333333V85.333333a85.333333 85.333333 0 0 1 85.333333-85.333333h853.333334z" fill="#FFA940" p-id="8479"></path><path d="M661.333333 128a21.333333 21.333333 0 0 1 21.333334 21.333333v42.666667a21.333333 21.333333 0 0 1-21.333334 21.333333h-298.666666a21.333333 21.333333 0 0 1-21.333334-21.333333v-42.666667a21.333333 21.333333 0 0 1 21.333334-21.333333h298.666666z" fill="#FFEAD1" p-id="8480"></path><path d="M832 256a21.333333 21.333333 0 0 1 21.333333 21.333333v42.666667a21.333333 21.333333 0 0 1-21.333333 21.333333h-640a21.333333 21.333333 0 0 1-21.333333-21.333333v-42.666667a21.333333 21.333333 0 0 1 21.333333-21.333333h640z" fill="#FFD9AC" p-id="8481"></path><path d="M768 341.333333v533.333334a21.333333 21.333333 0 0 1-21.333333 21.333333h-469.333334a21.333333 21.333333 0 0 1-21.333333-21.333333V341.333333h512z" fill="#FFF3E4" p-id="8482"></path><path d="M647.765333 491.733333a21.333333 21.333333 0 0 1 0 30.165334L572.330667 597.333333l75.434666 75.477334a21.333333 21.333333 0 0 1 0 30.165333l-30.165333 30.165333a21.333333 21.333333 0 0 1-30.165333 0l-75.477334-75.434666-75.392 75.434666a21.333333 21.333333 0 0 1-30.165333 0l-30.165333-30.165333a21.333333 21.333333 0 0 1 0-30.165333l75.392-75.477334-75.392-75.392a21.333333 21.333333 0 0 1 0-30.165333l30.165333-30.165333a21.333333 21.333333 0 0 1 30.165333 0L512 536.96l75.477333-75.392a21.333333 21.333333 0 0 1 30.165334 0l30.165333 30.165333z" fill="#FFA940" p-id="8483"></path></svg>