<?xml version="1.0" standalone="no"?><!DOCTYPE svg PUBLIC "-//W3C//DTD SVG 1.1//EN" "http://www.w3.org/Graphics/SVG/1.1/DTD/svg11.dtd"><svg t="1757079592537" class="icon" viewBox="0 0 1024 1024" version="1.1" xmlns="http://www.w3.org/2000/svg" p-id="38484" xmlns:xlink="http://www.w3.org/1999/xlink" width="200" height="200"><path d="M922.654 524.715c0 210.13-170.322 380.453-380.426 380.453-210.102 0-380.453-170.323-380.453-380.453 0-210.101 170.352-380.411 380.453-380.411 210.104 0 380.426 170.31 380.426 380.411" fill="#31D3FF" p-id="38485"></path><path d="M513.961 72.917c-39.069 0-77.839 5.14-115.241 15.241a28.22 28.22 0 0 0-1.114 0.273c-33.899 9.275-66.749 22.678-97.639 39.848-13.637 7.591-18.551 24.804-10.96 38.44 5.162 9.302 14.796 14.534 24.734 14.534a28.26 28.26 0 0 0 13.721-3.561 383.416 383.416 0 0 1 84.154-34.475c0.308-0.072 0.617-0.141 0.925-0.224 32.877-8.986 66.998-13.541 101.421-13.541 211.704 0 383.959 172.242 383.959 383.944 0 211.731-172.255 383.986-383.959 383.986S130.004 725.127 130.004 513.396c0-57.307 12.312-112.407 36.577-163.835 6.652-14.105 0.635-30.973-13.499-37.626-14.134-6.708-30.945-0.607-37.626 13.5-27.853 59.019-41.987 122.263-41.987 187.962 0 242.898 197.597 440.521 440.494 440.521s440.494-197.623 440.494-440.521c-0.002-242.869-197.6-440.48-440.496-440.48z" fill="#213847" p-id="38486"></path><path d="M198.601 276.16a28.115 28.115 0 0 1-18.192-6.653c-11.953-10.076-13.443-27.909-3.395-39.834 20.787-24.652 32.326-35.004 56.369-53.623 12.368-9.537 30.09-7.315 39.668 5.065 9.552 12.354 7.289 30.09-5.051 39.641-21.505 16.646-29.869 24.155-47.757 45.355-5.603 6.625-13.581 10.049-21.642 10.049zM690.633 595.881H492.76c-15.625 0-28.268-12.643-28.268-28.268V323.558c0-15.625 12.643-28.267 28.268-28.267s28.269 12.643 28.269 28.267v215.789h169.604c15.625 0 28.269 12.643 28.269 28.267-0.001 15.624-12.644 28.267-28.269 28.267z" fill="#213847" p-id="38487"></path></svg>