<?xml version="1.0" standalone="no"?><!DOCTYPE svg PUBLIC "-//W3C//DTD SVG 1.1//EN" "http://www.w3.org/Graphics/SVG/1.1/DTD/svg11.dtd"><svg t="1757240875056" class="icon" viewBox="0 0 1024 1024" version="1.1" xmlns="http://www.w3.org/2000/svg" p-id="4861" xmlns:xlink="http://www.w3.org/1999/xlink" width="200" height="200"><path d="M0 0m102.4 0l819.2 0q102.4 0 102.4 102.4l0 819.2q0 102.4-102.4 102.4l-819.2 0q-102.4 0-102.4-102.4l0-819.2q0-102.4 102.4-102.4Z" fill="#5682F7" fill-opacity=".2" p-id="4862"></path><path d="M865.536 207.872l-32.9216 32.9216 73.8816 73.472 0.2048 0.2048a51.2 51.2 0 0 1-0.2048 72.3968l-125.8496 125.184a51.2 51.2 0 0 1-72.192 0l-73.728-73.3184-78.1824 78.1824c15.0528 22.1696 26.2656 46.592 33.5872 73.3184 11.776 42.9568 11.9296 85.9648 0.4096 129.024a243.5072 243.5072 0 0 1-64.6656 111.7184 245.0944 245.0944 0 0 1-112.128 64.2048 245.76 245.76 0 0 1-129.28-0.4096 244.992 244.992 0 0 1-111.7184-65.024C125.2864 780.9024 101.888 722.6368 102.4 654.9504c0.6144-67.6864 24.9344-125.44 73.0112-173.2608 48.0256-47.7696 105.984-71.936 173.824-72.5504 49.5616-0.4096 94.1056 11.8272 133.5296 36.7616l310.3232-310.3232a51.2 51.2 0 1 1 72.448 72.3968z m-120.9856 195.6864l53.248-52.992-35.328-35.1232-53.248 52.992 35.328 35.1232z m-290.1504 149.8624l-1.024-1.024a141.8752 141.8752 0 0 0-103.2704-40.9088 141.824 141.824 0 0 0-102.4512 42.752A139.8784 139.8784 0 0 0 204.8 655.7696a139.2128 139.2128 0 0 0 40.6528 101.888c18.4832 18.6368 40.448 31.3856 65.8432 38.2976 25.3952 6.8608 50.8416 6.9632 76.288 0.256a144.384 144.384 0 0 0 66.048-37.888c18.5856-18.432 31.232-40.2944 37.9904-65.536 6.7072-25.1392 6.656-50.3296-0.256-75.4688a142.7456 142.7456 0 0 0-36.9664-63.8976z" fill="#5682F7" p-id="4863"></path></svg>