<?xml version="1.0" standalone="no"?><!DOCTYPE svg PUBLIC "-//W3C//DTD SVG 1.1//EN" "http://www.w3.org/Graphics/SVG/1.1/DTD/svg11.dtd"><svg t="1757163692587" class="icon" viewBox="0 0 1024 1024" version="1.1" xmlns="http://www.w3.org/2000/svg" p-id="83984" xmlns:xlink="http://www.w3.org/1999/xlink" width="200" height="200"><path d="M800 256H430.976L367.68 144.224A32 32 0 0 0 339.84 128H64a32 32 0 0 0-32 32v704a32 32 0 0 0 61.888 11.52L245.984 480H800a32 32 0 0 0 32-32V288a32 32 0 0 0-32-32z" fill="#E8A113" p-id="83985"></path><path d="M986.368 429.888A32 32 0 0 0 960 416H224a32 32 0 0 0-29.888 20.48l-160 416A32 32 0 0 0 64 896h736a32.032 32.032 0 0 0 29.856-20.48l160-416a32.064 32.064 0 0 0-3.488-29.632z" fill="#FFC431" p-id="83986"></path></svg>