<?xml version="1.0" standalone="no"?><!DOCTYPE svg PUBLIC "-//W3C//DTD SVG 1.1//EN" "http://www.w3.org/Graphics/SVG/1.1/DTD/svg11.dtd"><svg t="1757826797724" class="icon" viewBox="0 0 1024 1024" version="1.1" xmlns="http://www.w3.org/2000/svg" p-id="4180" xmlns:xlink="http://www.w3.org/1999/xlink" width="200" height="200"><path d="M512 213.333333c131.541333 0 238.208 97.066667 263.082667 224 88.917333 7.466667 163.584 89.6 163.584 186.624C938.666667 728.490667 860.458667 810.666667 760.874667 810.666667H298.666667c-117.333333 0-213.333333-100.821333-213.333334-224 0-115.754667 81.792-209.066667 192-224C320 273.066667 408.832 213.333333 512 213.333333z m42.666667 213.333334h-85.333334l-0.042666 85.290666L384 512v85.333333l85.290667-0.042666L469.333333 682.666667h85.333334l-0.042667-85.376L640 597.333333v-85.333333l-85.376-0.042667L554.666667 426.666667z" fill="#2695F1" p-id="4181"></path></svg>