<?xml version="1.0" standalone="no"?><!DOCTYPE svg PUBLIC "-//W3C//DTD SVG 1.1//EN" "http://www.w3.org/Graphics/SVG/1.1/DTD/svg11.dtd"><svg t="1757157745198" class="icon" viewBox="0 0 1024 1024" version="1.1" xmlns="http://www.w3.org/2000/svg" p-id="61854" xmlns:xlink="http://www.w3.org/1999/xlink" width="200" height="200"><path d="M80.652 521.42c0-236.299 191.778-427.88 428.333-427.88 236.589 0 428.362 191.581 428.362 427.88 0 236.297-191.773 427.875-428.332 427.875-236.584 0-428.363-191.578-428.363-427.875zM527.48 724.55c1.43-0.647 2.498-1.423 3.115-1.88 0.391-0.197 0.778-0.392 1.166-0.581 2.272-1.24 5.29-2.792 8.179-5.583l0.195-0.195c0.162-0.128 0.324-0.33 0.486-0.451a16.888 16.888 0 0 0 2.141-1.821l241.491-250.247c8.596-8.955 13.367-20.701 13.367-33.101 0-13.107-5.192-25.306-14.635-34.327-18.918-18.239-49.226-17.652-67.461 1.227L507.622 613.06 302.799 396.814c-18.104-19.081-48.349-19.925-67.495-1.881-9.473 8.954-14.925 21.61-14.925 34.657 0 12.259 4.64 23.883 13.045 32.771l238.988 252.324c14.053 14.929 36.215 18.827 55.068 9.865z" fill="#5ac2e7" p-id="61855"></path></svg>