<?xml version="1.0" standalone="no"?><!DOCTYPE svg PUBLIC "-//W3C//DTD SVG 1.1//EN" "http://www.w3.org/Graphics/SVG/1.1/DTD/svg11.dtd"><svg t="1757079617317" class="icon" viewBox="0 0 1024 1024" version="1.1" xmlns="http://www.w3.org/2000/svg" p-id="39498" xmlns:xlink="http://www.w3.org/1999/xlink" width="200" height="200"><path d="M464.896 986.368a425.664 425.664 0 0 1-302.592-125.248 426.56 426.56 0 0 1-125.312-302.72 425.664 425.664 0 0 1 125.312-302.592 426.176 426.176 0 0 1 302.592-125.312h28.992v400.192h399.104v28.032c0 57.664-11.392 113.792-33.664 166.464a427.776 427.776 0 0 1-227.712 227.584 426.496 426.496 0 0 1-166.72 33.6zM437.888 187.392a369.28 369.28 0 0 0-235.968 107.968 369.536 369.536 0 0 0-108.992 263.04c0 99.392 38.656 192.768 108.992 262.976a369.92 369.92 0 0 0 263.04 108.992c99.2 0 192.64-38.72 262.912-108.928a369.28 369.28 0 0 0 108.032-234.88H437.888V187.328z m549.184 286.4l-27.968-0.128H551.04V37.568L579.2 37.76a408.704 408.704 0 0 1 375.872 249.216 403.84 403.84 0 0 1 32.128 158.464v28.352h-0.128z m-379.968-56.128h322.88a348.736 348.736 0 0 0-102.016-220.672A350.528 350.528 0 0 0 607.104 94.72v322.88z" fill="#A0A0A0" p-id="39499"></path></svg>