<?xml version="1.0" standalone="no"?><!DOCTYPE svg PUBLIC "-//W3C//DTD SVG 1.1//EN" "http://www.w3.org/Graphics/SVG/1.1/DTD/svg11.dtd"><svg t="1757570642143" class="icon" viewBox="0 0 1024 1024" version="1.1" xmlns="http://www.w3.org/2000/svg" p-id="3364" xmlns:xlink="http://www.w3.org/1999/xlink" width="200" height="200"><path d="M531.071917 56.831751l402.814237-20.671909c37.055838 0 67.199706 30.079868 67.199706 67.071706l-18.047921 404.478231c0 31.807861-15.807931 47.039794-37.759835 68.351701l-10.047956 9.855957-398.718255 397.822259A136.959401 136.959401 0 0 1 439.040319 1023.99552a137.0874 137.0874 0 0 1-97.279574-40.127824L56.193994 698.876942a135.935405 135.935405 0 0 1-40.319823-97.151575c0-36.735839 14.207938-71.295688 40.319823-97.151575l398.718256-397.886259c5.439976-5.759975 10.239955-11.007952 14.399937-15.743931 20.799909-22.719901 31.167864-34.17585 61.69573-34.17585z m162.687288 425.598138c35.327845 0 70.527691-13.439941 97.343574-40.191824a136.319404 136.319404 0 0 0 40.447823-97.279574c0-36.67184-14.335937-71.231688-40.447823-97.087575A137.791397 137.791397 0 0 0 556.159807 344.958491c0 36.735839 14.271938 71.295688 40.319823 97.151575 26.879882 26.879882 62.079728 40.191824 97.343575 40.191824z m-41.599818-178.879217a58.751743 58.751743 0 0 1 41.599818-17.087925 58.751743 58.751743 0 0 1 58.751743 58.623743 58.879742 58.879742 0 0 1-117.503486 0c0-15.615932 6.143973-30.399867 17.215925-41.535818zM258.561109 504.765792a47.167794 47.167794 0 0 0-66.879708-0.064 47.487792 47.487792 0 0 0-0.127999 67.071706l273.470804 275.198796 0.063999 0.192a47.167794 47.167794 0 0 0 66.751708 0c18.559919-18.559919 18.559919-48.511788 0.128-67.135707l-273.406804-275.198796z" fill="#51A9FF" p-id="3365"></path></svg>