<?xml version="1.0" standalone="no"?><!DOCTYPE svg PUBLIC "-//W3C//DTD SVG 1.1//EN" "http://www.w3.org/Graphics/SVG/1.1/DTD/svg11.dtd"><svg t="1757241333333" class="icon" viewBox="0 0 1024 1024" version="1.1" xmlns="http://www.w3.org/2000/svg" p-id="12234" xmlns:xlink="http://www.w3.org/1999/xlink" width="200" height="200"><path d="M370.3 517.3c-0.2 25.8-0.1 51.7-0.1 77.5v74.9c0 6.2-0.4 12.4-1.5 18.6-3.1 16.2-14.8 26.8-31.2 27.8-4.4 0.3-8.9 0.1-13.4 0.1-22.1 0.4-34.7-14.4-35.8-35.8v-1.8c0-55.8 0-111.7-0.1-167.5 0-5.1 0.9-10.1 2.3-14.9 4.1-13.6 15.3-22.2 29.6-22.8 5.9-0.3 11.9-0.3 17.8 0 15.3 0.7 27.2 10.7 30.3 25.5 1.3 5.9 2.1 12.1 2.1 18.4zM552.4 512.2V677c0 5 0 10-1.4 15-3.5 11.9-10.8 19.7-22.8 22.7-10.5 2.6-21.3 2.8-31.7 0.1-15.5-4-24.1-15-24.5-31-0.4-14.5-0.2-29.1-0.2-43.6v-45.4-81.1c0-4.4-0.2-9 0.7-13.3 2.8-13.2 10.3-22.7 24-25.8 10.5-2.4 21.3-2.7 31.7 0.1 15.1 4.1 23.3 14.9 24.2 30.4v7.1zM736 675.7c0 5.4-0.5 10.7-1.9 15.8-3.2 11.8-10.2 20.1-22.3 23-11.4 2.7-23 3.1-34.2-0.5-12.8-4.1-19.8-13.3-22-26.5-1.3-7.4-1.4-14.7-1.4-22.1V522.8c0-7.4 0.4-14.8 1.6-22.1 2.4-15.2 15-26.6 30.5-27.4 3.6-0.2 7.1 0 10.7-0.2 25.3-1.5 39.4 14.7 39.1 38.7-0.1 17.5 0 35 0 52.6v29.4c-0.1 27.2-0.1 54.5-0.1 81.9z" fill="#1890ff" p-id="12235"></path><path d="M960.2 353c0-7.1-0.7-14.2-2.4-21.2-9-37.4-40.9-62.8-79.5-63.1-31.5-0.2-63 0-94.5-0.1-6.8 0-6.9-0.1-6.9-6.9-0.1-24.1-0.4-48.2 0.1-72.2 0.9-45.2-35.1-83.7-82.4-83.7-121.5 0.1-243.1 0-364.6 0-7.5 0-14.8 0.9-22 2.9-35.9 9.8-60.2 41.5-60.4 78.9-0.1 23.8 0 47.5 0 71.3 0 2.1 0 4.2-0.1 6.2 0 2.2-1.1 3.3-3.2 3.3-2.4 0.1-4.8 0.1-7.1 0.1-30 0-60-0.1-90.1 0-23 0.1-43 8-59.3 24.5-16.5 16.8-23.6 37.4-23.6 60.6V792.2c0 27.1 6 52.5 21.9 74.8 25.2 35.5 60.2 53 103.5 53 107.3 0.2 214.6 0.1 321.8 0.1h321c9.2 0 18.4-0.5 27.5-2.3 59.9-11.8 100.4-61 100.4-122.2-0.1-147.2-0.1-294.9-0.1-442.6zM878 803.2c-3.1 20.7-19.4 34.9-40.5 35.6-2.7 0.1-5.4 0-8 0H192.9c-3.9 0-7.8 0.1-11.6-0.4-21.1-3.2-35.5-19.8-35.5-41.4-0.1-146.2 0-292.4 0-438.6 0-7.9 0.1-7.9 8.6-7.9h164c11.9 0 10.6 1.1 10.6-10.4V201v-5.4c0.1-7.7 0.1-7.7 7.9-7.7h350.4c7.6 0 7.6 0.1 7.6 7.9v142.6c0 2.1 0.1 4.2 0 6.2-0.3 4.1 1.1 6.2 5.5 5.8 2.1-0.2 4.1 0 6.2 0h164.9c6.7 0.2 6.7 0.2 6.8 7.1v434.2c0.1 3.8 0.3 7.7-0.3 11.5z" fill="#1890ff" p-id="12236"></path></svg>