<?xml version="1.0" standalone="no"?><!DOCTYPE svg PUBLIC "-//W3C//DTD SVG 1.1//EN" "http://www.w3.org/Graphics/SVG/1.1/DTD/svg11.dtd"><svg t="1757655304853" class="icon" viewBox="0 0 1024 1024" version="1.1" xmlns="http://www.w3.org/2000/svg" p-id="8026" xmlns:xlink="http://www.w3.org/1999/xlink" width="200" height="200"><path d="M334.5 595H383c24.4 0 45-19.9 45-43.4s-20.6-43.4-45-43.4h-48.6c-23.9 0-43.4 19.4-43.4 43.4 0.1 23.9 19.6 43.4 43.5 43.4z m0-60H383c9.2 0 16.6 7.4 16.6 16.6s-7.4 16.6-16.6 16.6h-48.6c-9.2 0-16.6-7.4-16.6-16.6s7.5-16.6 16.7-16.6z m241.8-209.8c0-48.7-39.6-88.3-88.3-88.3h-28.3v26.7H488c16.4 0 31.9 6.4 43.6 18 11.6 11.6 18 27.1 18 43.6 0 16.4-6.4 31.9-18 43.6-11.7 11.6-27.1 18-43.6 18h-1.6v-27.7l-41 41 41 41v-27.7h1.6c48.6 0.1 88.3-39.5 88.3-88.2zM383 356.8h-48.6c-23.9 0-43.4 19.4-43.4 43.4 0 23.9 19.4 43.4 43.4 43.4H383c24.4 0 45-19.9 45-43.4 0-23.6-20.6-43.4-45-43.4z m0 59.9h-48.6c-9.2 0-16.6-7.4-16.6-16.6 0-9.2 7.4-16.6 16.6-16.6H383c9.2 0 16.6 7.4 16.6 16.6 0 9.2-7.4 16.6-16.6 16.6z m0-211.4h-48.6c-23.9 0-43.4 19.4-43.4 43.4 0 23.9 19.4 43.4 43.4 43.4H383c24.4 0 45-19.9 45-43.4 0-23.6-20.6-43.4-45-43.4z m0 59.9h-48.6c-9.2 0-16.6-7.4-16.6-16.6 0-9.2 7.4-16.6 16.6-16.6H383c9.2 0 16.6 7.4 16.6 16.6 0 9.2-7.4 16.6-16.6 16.6zM236.1 536.6h-1.6c-16.4 0-31.9-6.4-43.6-18-11.6-11.7-18-27.1-18-43.6 0-16.4 6.4-31.9 18-43.6 11.6-11.6 27.1-18 43.6-18h28.3v-26.7h-28.3c-48.7 0-88.3 39.6-88.3 88.3s39.6 88.3 88.3 88.3h1.6v27.3l35.8-40.6-35.8-40.6v27.2z m0 0M662 876.9c0 15.8 6.3 30.9 17.4 42 11.2 11.1 26.3 17.4 42.1 17.4h230.4c15.8 0 30.9-6.2 42-17.4 11.1-11.1 17.4-26.3 17.4-42V770.6H662v106.3z m174.7-59.5c20.2 0 36.6 16.4 36.6 36.6 0 20.2-16.4 36.6-36.6 36.6-20.2 0-36.6-16.4-36.6-36.6 0-20.2 16.4-36.6 36.6-36.6z m174.6-563.8c0-15.8-6.2-30.9-17.4-42-11.1-11.2-26.3-17.4-42-17.4H721.5c-15.8 0-30.9 6.2-42.1 17.4-11.2 11.1-17.4 26.3-17.4 42.1V746h349.3V253.6z m-48 155.8c0 3-1.2 5.9-3.4 8-2.1 2.1-5 3.3-8.1 3.3H721.5c-6.3 0-11.4-5-11.4-11.3v-38.1c0-6.3 5.1-11.3 11.4-11.3h230.4c6.3 0 11.4 5 11.4 11.3v38.1z m0-112.7c0 6.3-5.1 11.4-11.4 11.4H721.5c-6.3 0-11.4-5.1-11.4-11.4v-38.1c0-6.3 5.1-11.4 11.4-11.4h230.4c6.3 0 11.4 5.1 11.4 11.4v38.1z m0 0" fill="#1296DB" p-id="8027"></path><path d="M625.1 861.6h-74.5V752.4h74.5V651.8H73.6V152.6h837.9v12.9h57.3c1.2 0 2.4 0.3 3.7 0.4v-7.4c0-18.8-7.4-36.8-20.7-50.1-13.3-13.3-31.3-20.7-50.1-20.7H83.5c-39.1 0-70.8 31.7-70.8 70.8v523.2c0 18.8 7.5 36.8 20.7 50 13.3 13.3 31.3 20.7 50.1 20.7h360.9v109.2H304.7c-20.3 0.5-36.5 17.1-36.5 37.4 0 20.3 16.2 36.9 36.5 37.4h337c-10.7-12.6-16.6-28.6-16.6-45.1v-29.7z m0 0" fill="#1296DB" p-id="8028"></path></svg>