<?xml version="1.0" standalone="no"?><!DOCTYPE svg PUBLIC "-//W3C//DTD SVG 1.1//EN" "http://www.w3.org/Graphics/SVG/1.1/DTD/svg11.dtd"><svg t="1759151094691" class="icon" viewBox="0 0 1024 1024" version="1.1" xmlns="http://www.w3.org/2000/svg" p-id="5009" xmlns:xlink="http://www.w3.org/1999/xlink" width="200" height="200"><path d="M912.6912 861.8496h-798.72c-16.9472 0-30.72 13.7728-30.72 30.72s13.7728 30.72 30.72 30.72h798.72c16.9472 0 30.72-13.7728 30.72-30.72s-13.7728-30.72-30.72-30.72zM707.584 788.5312h85.248c31.0784 0 56.3712-25.2928 56.3712-56.3712V178.2272c0-31.0784-25.2928-56.3712-56.3712-56.3712H707.584c-31.0784 0-56.3712 25.2928-56.3712 56.3712v553.984c0.0512 31.0784 25.344 56.32 56.3712 56.32zM468.1216 788.5312h85.248c31.0784 0 56.3712-25.2928 56.3712-56.3712V344.6784c0-31.0784-25.2928-56.3712-56.3712-56.3712H468.1216c-31.0784 0-56.3712 25.2928-56.3712 56.3712v387.5328c0.0512 31.0784 25.2928 56.32 56.3712 56.32zM210.432 788.5312h85.248c31.0784 0 56.3712-25.2928 56.3712-56.3712V422.0928c0-31.0784-25.2928-56.3712-56.3712-56.3712H210.432c-31.0784 0-56.3712 25.2928-56.3712 56.3712v310.1184c0 31.0784 25.2928 56.32 56.3712 56.32z" fill="#6893DF" p-id="5010"></path></svg>