<?xml version="1.0" standalone="no"?><!DOCTYPE svg PUBLIC "-//W3C//DTD SVG 1.1//EN" "http://www.w3.org/Graphics/SVG/1.1/DTD/svg11.dtd"><svg t="1757078776285" class="icon" viewBox="0 0 1024 1024" version="1.1" xmlns="http://www.w3.org/2000/svg" p-id="20843" xmlns:xlink="http://www.w3.org/1999/xlink" width="200" height="200"><path d="M128 0h768a128 128 0 0 1 128 128v768a128 128 0 0 1-128 128H128a128 128 0 0 1-128-128V128a128 128 0 0 1 128-128z m421.632 216.64c0-3.136-0.256-5.76-0.832-7.936a9.792 9.792 0 0 0-3.008-5.12 22.272 22.272 0 0 0-7.808-4.352 89.536 89.536 0 0 0-12.992-3.84A186.048 186.048 0 0 0 490.048 192c-18.368 0.064-34.752 2.688-49.28 7.872-14.08 4.992-26.88 12.928-37.696 23.36a131.712 131.712 0 0 0-26.944 38.848c-7.296 15.424-12.8 33.28-16.64 53.632l-6.656 35.904h-38.784a10.688 10.688 0 0 0-7.936 3.456 39.488 39.488 0 0 0-6.208 8.704 54.592 54.592 0 0 0-4.544 11.968c-1.216 4.48-2.176 8.896-3.008 13.184a130.112 130.112 0 0 0-2.304 21.76c0 5.76 0.768 9.728 2.304 11.776a7.68 7.68 0 0 0 6.528 3.136h39.488l-53.248 272.64a179.52 179.52 0 0 1-7.424 27.776 64.128 64.128 0 0 1-10.24 18.624 36.736 36.736 0 0 1-14.272 10.688 50.88 50.88 0 0 1-19.584 3.456 81.792 81.792 0 0 1-14.4-1.28 121.6 121.6 0 0 0-4.608-0.896 26.304 26.304 0 0 0-4.224-0.32c-2.112 0-4.032 1.088-5.632 3.392a36.096 36.096 0 0 0-4.48 8.96c-1.28 3.584-2.432 7.552-3.456 11.904a211.84 211.84 0 0 0-4.224 23.552 80 80 0 0 0-0.576 7.296 28.608 28.608 0 0 0 0.704 7.232 12.928 12.928 0 0 0 2.496 4.736c2.368 1.92 7.68 3.84 15.872 5.76s18.432 2.944 30.72 2.944c18.304 0 34.688-2.56 49.152-7.808 14.08-4.928 26.88-12.864 37.568-23.232 10.56-10.24 19.328-23.04 26.24-38.208 6.976-15.232 12.416-32.896 16.448-52.992l55.36-284.224h57.856c2.56 0 4.992-1.152 7.232-3.456a30.912 30.912 0 0 0 5.76-8.896c3.584-8.128 6.336-16.576 8.192-25.216 1.536-7.232 2.368-14.528 2.432-21.952a22.08 22.08 0 0 0-2.112-11.008c-1.408-2.304-3.84-3.456-7.424-3.456h-57.088l5.248-27.52c1.536-9.152 3.904-18.176 7.04-26.88a61.632 61.632 0 0 1 10.24-18.304 35.392 35.392 0 0 1 14.336-10.304 53.312 53.312 0 0 1 19.52-3.264c3.968 0 7.936 0.32 11.84 1.024 3.2 0.64 6.464 1.472 9.664 2.368l7.616 2.368a18.048 18.048 0 0 0 5.44 1.088c1.92 0 3.648-1.152 5.312-3.456a35.904 35.904 0 0 0 4.416-9.024c1.344-3.968 2.496-8.064 3.328-12.16a192.064 192.064 0 0 0 3.712-23.744c0.384-3.264 0.512-5.632 0.512-7.04z m164.864 308.608l112.192-144.64A25.088 25.088 0 0 0 832 370.56c0.384-2.432-1.024-4.352-4.16-5.76a46.656 46.656 0 0 0-14.656-2.752 387.776 387.776 0 0 0-26.624-0.704 300.8 300.8 0 0 0-23.488 0.704c-5.76 0.448-10.496 1.152-14.08 2.048a21.248 21.248 0 0 0-8 3.52 30.912 30.912 0 0 0-4.672 4.864l-77.824 103.872L620.8 372.544a20.16 20.16 0 0 0-2.688-5.76c-1.088-1.472-3.2-2.56-6.208-3.264a86.4 86.4 0 0 0-12.992-1.6 395.008 395.008 0 0 0-23.36-0.512 339.52 339.52 0 0 0-27.328 0.832 44.032 44.032 0 0 0-15.168 3.328c-3.264 1.664-5.12 3.84-5.632 6.464a21.056 21.056 0 0 0 1.472 10.24l53.888 143.68-122.688 154.752a25.728 25.728 0 0 0-4.48 9.6c-0.384 2.432 0.896 4.416 3.84 5.888 2.816 1.536 7.424 2.56 13.696 3.2a431.68 431.68 0 0 0 52.672 0.192c6.848-0.512 12.416-1.216 16.64-2.176a21.632 21.632 0 0 0 9.024-3.648 27.008 27.008 0 0 0 4.864-5.376l81.792-110.144 39.104 109.76c0.448 1.984 1.28 3.904 2.368 5.632 1.088 1.6 3.2 2.88 6.336 3.84 4.352 1.088 8.832 1.792 13.376 2.048 5.76 0.448 13.76 0.704 23.872 0.704 11.072 0 20.16-0.32 27.136-0.896a52.8 52.8 0 0 0 16.128-3.264c3.712-1.664 5.952-3.712 6.656-6.272a17.6 17.6 0 0 0-0.704-9.792l-57.92-154.752z" fill="#fda32c" p-id="20844"></path></svg>