<?xml version="1.0" standalone="no"?><!DOCTYPE svg PUBLIC "-//W3C//DTD SVG 1.1//EN" "http://www.w3.org/Graphics/SVG/1.1/DTD/svg11.dtd"><svg t="1757241281691" class="icon" viewBox="0 0 1024 1024" version="1.1" xmlns="http://www.w3.org/2000/svg" p-id="10346" xmlns:xlink="http://www.w3.org/1999/xlink" width="200" height="200"><path d="M496 568c-68.4 0-132.7-26.6-181-75-48.4-48.4-75-112.6-75-181s26.6-132.7 75-181c48.4-48.4 112.6-75 181-75s132.7 26.6 181 75c48.4 48.4 75 112.6 75 181s-26.6 132.7-75 181c-48.3 48.4-112.6 75-181 75z m0-448c-105.9 0-192 86.1-192 192s86.1 192 192 192 192-86.1 192-192-86.1-192-192-192z" fill="#3688FF" p-id="10347"></path><path d="M872 952c-17.7 0-32-14.3-32-32 0-185.3-150.7-336-336-336S168 734.7 168 920c0 17.7-14.3 32-32 32s-32-14.3-32-32c0-54 10.6-106.4 31.4-155.7 20.1-47.6 49-90.4 85.7-127.1s79.5-65.6 127.1-85.7C397.6 530.6 450 520 504 520s106.4 10.6 155.7 31.4c47.6 20.1 90.4 49 127.1 85.7s65.6 79.5 85.7 127.1C893.4 813.6 904 866 904 920c0 17.7-14.3 32-32 32z" fill="#3688FF" p-id="10348"></path></svg>