<?xml version="1.0" standalone="no"?><!DOCTYPE svg PUBLIC "-//W3C//DTD SVG 1.1//EN" "http://www.w3.org/Graphics/SVG/1.1/DTD/svg11.dtd"><svg t="1757152173114" class="icon" viewBox="0 0 1024 1024" version="1.1" xmlns="http://www.w3.org/2000/svg" p-id="43928" xmlns:xlink="http://www.w3.org/1999/xlink" width="200" height="200"><path d="M0 0m307.2 0l409.6 0q307.2 0 307.2 307.2l0 409.6q0 307.2-307.2 307.2l-409.6 0q-307.2 0-307.2-307.2l0-409.6q0-307.2 307.2-307.2Z" fill="#1389FF" p-id="43929"></path><path d="M716.8 215.296H307.2a307.2 307.2 0 0 0-307.2 307.2v201.728a307.2 307.2 0 0 1 307.2-307.2h409.6a307.2 307.2 0 0 1 307.2 307.2v-201.728a307.2 307.2 0 0 0-307.2-307.2z" fill="#2993FF" opacity=".5" p-id="43930"></path><path d="M716.8 417.024H307.2A307.2 307.2 0 0 0 0 720.384a298.752 298.752 0 0 0 18.432 100.864A307.2 307.2 0 0 1 307.2 618.752h409.6a307.2 307.2 0 0 1 288.512 202.496 298.752 298.752 0 0 0 18.688-100.864 307.2 307.2 0 0 0-307.2-303.36z" fill="#42A1FF" opacity=".5" p-id="43931"></path><path d="M1007.104 821.76a307.2 307.2 0 0 0-288.512-202.752h-409.6c-136.448 0-252.16 75.008-292.096 192.768a304.64 304.64 0 0 0 55.04 100.352 304.896 304.896 0 0 1 237.056-112.896h409.6a305.664 305.664 0 0 1 237.312 112.896 311.552 311.552 0 0 0 51.2-90.368z" fill="#5AACFF" opacity=".5" p-id="43932"></path><path d="M716.8 799.232H307.2a304.896 304.896 0 0 0-237.056 112.896A307.2 307.2 0 0 0 307.2 1024h409.6a307.2 307.2 0 0 0 237.056-111.872A304.896 304.896 0 0 0 716.8 799.232z" fill="#76BBFF" opacity=".5" p-id="43933"></path><path d="M304.896 367.104a43.264 43.264 0 0 1 33.792 11.776 37.12 37.12 0 0 1 10.752 25.6v269.568H209.664V407.296a34.816 34.816 0 0 1 14.336-29.696 53.504 53.504 0 0 1 32-10.496zM537.6 215.552a46.592 46.592 0 0 1 32 10.24 30.976 30.976 0 0 1 12.032 24.32v423.936h-140.032V251.392a28.416 28.416 0 0 1 4.608-16.128 34.816 34.816 0 0 1 11.008-11.008 57.6 57.6 0 0 1 15.104-6.656 64.512 64.512 0 0 1 14.08-2.048zM768 482.304a41.472 41.472 0 0 1 14.592 3.072 68.096 68.096 0 0 1 14.848 8.704 54.528 54.528 0 0 1 11.776 12.544 25.6 25.6 0 0 1 4.864 15.104v152.32h-138.752v-151.04a32.256 32.256 0 0 1 3.328-14.08 44.288 44.288 0 0 1 9.216-13.312 48.64 48.64 0 0 1 14.08-9.472 42.496 42.496 0 0 1 17.92-3.84zM202.752 731.136h618.496v77.312H202.752z" fill="#FFFFFF" p-id="43934"></path></svg>