<?xml version="1.0" standalone="no"?><!DOCTYPE svg PUBLIC "-//W3C//DTD SVG 1.1//EN" "http://www.w3.org/Graphics/SVG/1.1/DTD/svg11.dtd"><svg t="1757153218482" class="icon" viewBox="0 0 1024 1024" version="1.1" xmlns="http://www.w3.org/2000/svg" p-id="55755" xmlns:xlink="http://www.w3.org/1999/xlink" width="200" height="200"><path d="M992 416c2.24 0 4.48 0.64 6.72 0.64-12.8-66.24-38.72-127.68-74.88-181.44-1.6 1.6-2.56 3.52-4.16 5.12-37.44 37.44-98.24 37.44-135.68 0a96 96 0 0 1 0-135.68c1.6-1.6 3.52-2.88 5.12-4.16A496.512 496.512 0 0 0 607.36 25.28c0 2.24 0.64 4.48 0.64 6.72 0 53.12-42.88 96-96 96s-96-42.88-96-96c0-2.24 0.64-4.48 0.64-6.72C350.4 38.4 288.96 64 235.2 100.48c1.6 1.28 3.52 2.56 5.12 4.16 37.44 37.44 37.44 98.24 0 135.68a96 96 0 0 1-135.68 0c-1.6-1.6-2.88-3.52-4.16-5.12C64 288.96 38.4 350.4 25.28 416.64c2.24 0 4.48-0.64 6.72-0.64 53.12 0 96 42.88 96 96s-42.88 96-96 96c-2.24 0-4.48-0.64-6.72-0.64 12.8 66.24 38.72 127.68 74.88 181.44 1.6-1.6 2.56-3.52 4.16-5.12 37.44-37.44 98.24-37.44 135.68 0s37.44 98.24 0 135.68c-1.6 1.6-3.52 2.88-5.12 4.16 53.76 36.16 115.52 62.08 181.44 74.88 0-2.24-0.64-4.48-0.64-6.72 0-53.12 42.88-96 96-96s96 42.88 96 96c0 2.24-0.64 4.48-0.64 6.72 66.24-12.8 127.68-38.72 181.44-74.88-1.6-1.6-3.52-2.56-5.12-4.16a96 96 0 0 1 0-135.68 96 96 0 0 1 135.68 0c1.6 1.6 2.88 3.52 4.16 5.12 36.16-53.76 62.08-115.52 74.88-181.44-1.6 0-3.84 0.64-6.08 0.64-53.12 0-96-42.88-96-96s42.88-96 96-96z m-480 224c-70.72 0-128-57.28-128-128s57.28-128 128-128 128 57.28 128 128-57.28 128-128 128z" fill="#1890FF" p-id="55756"></path></svg>