<?xml version="1.0" standalone="no"?><!DOCTYPE svg PUBLIC "-//W3C//DTD SVG 1.1//EN" "http://www.w3.org/Graphics/SVG/1.1/DTD/svg11.dtd"><svg t="1757830049965" class="icon" viewBox="0 0 1024 1024" version="1.1" xmlns="http://www.w3.org/2000/svg" p-id="6005" xmlns:xlink="http://www.w3.org/1999/xlink" width="200" height="200"><path d="M511.721751 0.000278a511.999861 511.999861 0 1 0 512.277971 511.721751A511.721751 511.721751 0 0 0 511.721751 0.000278zM184.386696 511.722029A36.988583 36.988583 0 0 1 222.487718 475.011556h92.888622a36.710473 36.710473 0 0 1 0 73.420947H222.487718a36.710473 36.710473 0 0 1-38.101022-36.710474z m201.351385 158.522499l-65.911986 65.911987a36.988583 36.988583 0 0 1-62.852781-25.864197 38.101022 38.101022 0 0 1 10.846276-26.142307L333.731577 618.238024a36.710473 36.710473 0 1 1 52.006504 52.006504z m29.201513-256.138985a36.710473 36.710473 0 0 1-52.006504 0l-65.633877-65.633877a36.988583 36.988583 0 0 1 26.142307-62.85278 36.154254 36.154254 0 0 1 25.864197 10.846276L414.939594 361.54282a36.988583 36.988583 0 0 1 0 52.562723z m135.439398 373.779366a37.266693 37.266693 0 0 1-36.988583 36.988583 36.988583 36.988583 0 0 1-36.710473-36.988583V695.274397a36.988583 36.988583 0 0 1 36.710473-36.988583A37.266693 37.266693 0 0 1 550.378992 695.274397z m0-459.437137a37.266693 37.266693 0 0 1-36.988583 36.988583 36.988583 36.988583 0 0 1-36.710473-36.988583V235.559149a36.988583 36.988583 0 0 1 36.710473-36.988583 37.544802 37.544802 0 0 1 36.988583 36.988583z m63.965219 15.85225L679.978088 278.109926a36.710473 36.710473 0 0 1 52.006504 51.728394L667.463154 396.584635a37.544802 37.544802 0 0 1-52.284614 0 36.988583 36.988583 0 0 1-10.568166-26.142306 36.432364 36.432364 0 0 1 9.733837-26.142307z m122.090135 397.974905a37.544802 37.544802 0 0 1-52.284613 0l-65.355767-65.911986a36.154254 36.154254 0 0 1 0-51.728395 36.710473 36.710473 0 0 1 25.864197-10.846276 35.876145 35.876145 0 0 1 25.864197 10.846276l65.911986 65.633877a36.988583 36.988583 0 0 1 0 52.006504z m66.468206-194.676753h-92.888622a36.710473 36.710473 0 0 1 0-73.420947h92.888622a36.710473 36.710473 0 0 1 0 73.420947z" fill="#F2AE45" p-id="6006"></path></svg>